%TF.GenerationSoftware,KiCad,Pcbnew,10.0.4*%
%TF.CreationDate,2026-07-29T17:25:54+03:00*%
%TF.ProjectId,OIS_L,4f49535f-4c2e-46b6-9963-61645f706362,rev?*%
%TF.SameCoordinates,Original*%
%TF.FileFunction,Copper,L2,Bot*%
%TF.FilePolarity,Positive*%
%FSLAX46Y46*%
G04 Gerber Fmt 4.6, Leading zero omitted, Abs format (unit mm)*
G04 Created by KiCad (PCBNEW 10.0.4) date 2026-07-29 17:25:54*
%MOMM*%
%LPD*%
G01*
G04 APERTURE LIST*
G04 Aperture macros list*
%AMRoundRect*
0 Rectangle with rounded corners*
0 $1 Rounding radius*
0 $2 $3 $4 $5 $6 $7 $8 $9 X,Y pos of 4 corners*
0 Add a 4 corners polygon primitive as box body*
4,1,4,$2,$3,$4,$5,$6,$7,$8,$9,$2,$3,0*
0 Add four circle primitives for the rounded corners*
1,1,$1+$1,$2,$3*
1,1,$1+$1,$4,$5*
1,1,$1+$1,$6,$7*
1,1,$1+$1,$8,$9*
0 Add four rect primitives between the rounded corners*
20,1,$1+$1,$2,$3,$4,$5,0*
20,1,$1+$1,$4,$5,$6,$7,0*
20,1,$1+$1,$6,$7,$8,$9,0*
20,1,$1+$1,$8,$9,$2,$3,0*%
G04 Aperture macros list end*
%TA.AperFunction,ComponentPad*%
%ADD10C,2.600000*%
%TD*%
%TA.AperFunction,ConnectorPad*%
%ADD11C,3.800000*%
%TD*%
%TA.AperFunction,ComponentPad*%
%ADD12R,1.800000X1.800000*%
%TD*%
%TA.AperFunction,ComponentPad*%
%ADD13C,1.800000*%
%TD*%
%TA.AperFunction,ComponentPad*%
%ADD14RoundRect,0.249999X-0.850001X-0.850001X0.850001X-0.850001X0.850001X0.850001X-0.850001X0.850001X0*%
%TD*%
%TA.AperFunction,ComponentPad*%
%ADD15C,2.200000*%
%TD*%
%TA.AperFunction,ComponentPad*%
%ADD16R,1.700000X1.700000*%
%TD*%
%TA.AperFunction,ComponentPad*%
%ADD17C,1.700000*%
%TD*%
%TA.AperFunction,ViaPad*%
%ADD18C,0.700000*%
%TD*%
%TA.AperFunction,Conductor*%
%ADD19C,0.500000*%
%TD*%
G04 APERTURE END LIST*
D10*
%TO.P,REF\u002A\u002A,1*%
%TO.N,N/C*%
X156100000Y-131900000D03*
D11*
X156100000Y-131900000D03*
%TD*%
D12*
%TO.P,D1,1,K_1*%
%TO.N,Net-(D1-K)*%
X129010000Y-93400000D03*
D13*
%TO.P,D1,2,A_2*%
%TO.N,5v_SYS*%
X131550000Y-93400000D03*
%TD*%
D14*
%TO.P,J1,1,Pin_1_1*%
%TO.N,5v_SYS*%
X126250000Y-130160000D03*
D15*
%TO.P,J1,2,Pin_2_2*%
%TO.N,GND*%
X128790000Y-130160000D03*
%TO.P,J1,3,Pin_3_3*%
%TO.N,OUT*%
X131330000Y-130160000D03*
%TD*%
D16*
%TO.P,J3,1,Pin_1_1*%
%TO.N,Net-(J3-Pin_1)*%
X131450000Y-112000000D03*
D17*
%TO.P,J3,2,Pin_2_2*%
%TO.N,Net-(J3-Pin_2)*%
X131450000Y-114540000D03*
%TO.P,J3,3,Pin_3_3*%
%TO.N,Net-(J3-Pin_3)*%
X128910000Y-112000000D03*
%TO.P,J3,4,Pin_4_4*%
%TO.N,Net-(J3-Pin_2)*%
X128910000Y-114540000D03*
%TD*%
D10*
%TO.P,REF\u002A\u002A,1*%
%TO.N,N/C*%
X121400000Y-131900000D03*
D11*
X121400000Y-131900000D03*
%TD*%
D16*
%TO.P,J2,1,Pin_1_1*%
%TO.N,Signal*%
X147630000Y-105250000D03*
D17*
%TO.P,J2,2,Pin_2_2*%
%TO.N,Net-(D4-K)*%
X147630000Y-107790000D03*
%TO.P,J2,3,Pin_3_3*%
%TO.N,Signal*%
X145090000Y-105250000D03*
%TO.P,J2,4,Pin_4_4*%
%TO.N,Net-(D3-K)*%
X145090000Y-107790000D03*
%TO.P,J2,5,Pin_5_5*%
%TO.N,Signal*%
X142550000Y-105250000D03*
%TO.P,J2,6,Pin_6_6*%
%TO.N,Net-(D2-K)*%
X142550000Y-107790000D03*
%TD*%
D10*
%TO.P,REF\u002A\u002A,1*%
%TO.N,N/C*%
X121500000Y-87300000D03*
D11*
X121500000Y-87300000D03*
%TD*%
D17*
%TO.P,U2,1,OUT_1*%
%TO.N,OUT*%
X146450000Y-90920000D03*
D16*
%TO.P,U2,2,GND_2*%
%TO.N,GND*%
X146450000Y-93460000D03*
D17*
%TO.P,U2,3,Vcc_3*%
%TO.N,Net-(U2-Vcc)*%
X146450000Y-96000000D03*
%TD*%
D10*
%TO.P,REF\u002A\u002A,1*%
%TO.N,N/C*%
X156100000Y-87300000D03*
D11*
X156100000Y-87300000D03*
%TD*%
D18*
%TO.N,5v_SYS*%
X142900000Y-97400000D03*
X145350000Y-98650000D03*
%TO.N,OUT*%
X139800000Y-102900000D03*
%TO.N,5v_SYS*%
X125600000Y-113000000D03*
%TO.N,Net-(J3-Pin_2)*%
X120750000Y-110900000D03*
X123950000Y-98450000D03*
%TO.N,Signal*%
X153410000Y-101720000D03*
%TD*%
%TO.N,5v_SYS*%
D19*
X145350000Y-98650000D02*
X144150000Y-98650000D01*
X144150000Y-98650000D02*
X142900000Y-97400000D01*
%TO.N,OUT*%
X133800000Y-110700000D02*
X133800000Y-128025000D01*
X133800000Y-128025000D02*
X131375000Y-130450000D01*
X139800000Y-104700000D02*
X133800000Y-110700000D01*
X139800000Y-102900000D02*
X139800000Y-104700000D01*
%TO.N,5v_SYS*%
X125600000Y-99350000D02*
X131550000Y-93400000D01*
X125600000Y-113000000D02*
X125600000Y-99350000D01*
%TO.N,Net-(J3-Pin_2)*%
X120750000Y-101650000D02*
X120750000Y-110900000D01*
X123950000Y-98450000D02*
X120750000Y-101650000D01*
%TO.N,Signal*%
X147630000Y-103275000D02*
X147630000Y-105250000D01*
X149185000Y-101720000D02*
X147630000Y-103275000D01*
X153410000Y-101720000D02*
X149185000Y-101720000D01*
%TD*%
%TA.AperFunction,Conductor*%
%TO.N,GND*%
G36*
X154725164Y-85120185D02*
G01*
X154770919Y-85172989D01*
X154780863Y-85242147D01*
X154751838Y-85305703D01*
X154724098Y-85329493D01*
X154708714Y-85339159D01*
X154497915Y-85507265D01*
X154307265Y-85697915D01*
X154139161Y-85908712D01*
X153995714Y-86137005D01*
X153878734Y-86379917D01*
X153789687Y-86634397D01*
X153789684Y-86634405D01*
X153729688Y-86897268D01*
X153729686Y-86897280D01*
X153699500Y-87165186D01*
X153699500Y-87434813D01*
X153729686Y-87702719D01*
X153729688Y-87702731D01*
X153789684Y-87965594D01*
X153789687Y-87965602D01*
X153878734Y-88220082D01*
X153995714Y-88462994D01*
X153995716Y-88462997D01*
X154139162Y-88691289D01*
X154307266Y-88902085D01*
X154497915Y-89092734D01*
X154708711Y-89260838D01*
X154937003Y-89404284D01*
X155179921Y-89521267D01*
X155371049Y-89588145D01*
X155434397Y-89610312D01*
X155434405Y-89610315D01*
X155434408Y-89610315D01*
X155434409Y-89610316D01*
X155697268Y-89670312D01*
X155965187Y-89700499D01*
X155965188Y-89700500D01*
X155965191Y-89700500D01*
X156234812Y-89700500D01*
X156234812Y-89700499D01*
X156502732Y-89670312D01*
X156765591Y-89610316D01*
X157020079Y-89521267D01*
X157262997Y-89404284D01*
X157491289Y-89260838D01*
X157702085Y-89092734D01*
X157892734Y-88902085D01*
X158060838Y-88691289D01*
X158070505Y-88675903D01*
X158122839Y-88629612D01*
X158191892Y-88618962D01*
X158255741Y-88647336D01*
X158294114Y-88705726D01*
X158299500Y-88741874D01*
X158299500Y-130458125D01*
X158279815Y-130525164D01*
X158227011Y-130570919D01*
X158157853Y-130580863D01*
X158094297Y-130551838D01*
X158070507Y-130524098D01*
X158060840Y-130508714D01*
X158060839Y-130508713D01*
X158060838Y-130508711D01*
X157892734Y-130297915D01*
X157702085Y-130107266D01*
X157491289Y-129939162D01*
X157262997Y-129795716D01*
X157262994Y-129795714D01*
X157020082Y-129678734D01*
X156765602Y-129589687D01*
X156765594Y-129589684D01*
X156568446Y-129544687D01*
X156502732Y-129529688D01*
X156502728Y-129529687D01*
X156502719Y-129529686D01*
X156234813Y-129499500D01*
X156234809Y-129499500D01*
X155965191Y-129499500D01*
X155965186Y-129499500D01*
X155697280Y-129529686D01*
X155697268Y-129529688D01*
X155434405Y-129589684D01*
X155434397Y-129589687D01*
X155179917Y-129678734D01*
X154937005Y-129795714D01*
X154708712Y-129939161D01*
X154497915Y-130107265D01*
X154307265Y-130297915D01*
X154139161Y-130508712D01*
X153995714Y-130737005D01*
X153878734Y-130979917D01*
X153789687Y-131234397D01*
X153789684Y-131234405D01*
X153729688Y-131497268D01*
X153729686Y-131497280D01*
X153699500Y-131765186D01*
X153699500Y-132034813D01*
X153729686Y-132302719D01*
X153729688Y-132302731D01*
X153789684Y-132565594D01*
X153789687Y-132565602D01*
X153878734Y-132820082D01*
X153995714Y-133062994D01*
X154005879Y-133079172D01*
X154139162Y-133291289D01*
X154233350Y-133409397D01*
X154307265Y-133502084D01*
X154497915Y-133692734D01*
X154708714Y-133860840D01*
X154724098Y-133870507D01*
X154770389Y-133922842D01*
X154781036Y-133991895D01*
X154752661Y-134055744D01*
X154694270Y-134094115D01*
X154658125Y-134099500D01*
X122841875Y-134099500D01*
X122774836Y-134079815D01*
X122729081Y-134027011D01*
X122719137Y-133957853D01*
X122748162Y-133894297D01*
X122775902Y-133870507D01*
X122784581Y-133865052D01*
X122791289Y-133860838D01*
X123002085Y-133692734D01*
X123192734Y-133502085D01*
X123360838Y-133291289D01*
X123504284Y-133062997D01*
X123621267Y-132820079D01*
X123710316Y-132565591D01*
X123770312Y-132302732D01*
X123800500Y-132034809D01*
X123800500Y-131765191D01*
X123770312Y-131497268D01*
X123710316Y-131234409D01*
X123699204Y-131202654D01*
X123685258Y-131162796D01*
X123621267Y-130979921D01*
X123504284Y-130737003D01*
X123360838Y-130508711D01*
X123192734Y-130297915D01*
X123002085Y-130107266D01*
X122791289Y-129939162D01*
X122562997Y-129795716D01*
X122562994Y-129795714D01*
X122320082Y-129678734D01*
X122065602Y-129589687D01*
X122065594Y-129589684D01*
X121868446Y-129544687D01*
X121802732Y-129529688D01*
X121802728Y-129529687D01*
X121802719Y-129529686D01*
X121534813Y-129499500D01*
X121534809Y-129499500D01*
X121265191Y-129499500D01*
X121265186Y-129499500D01*
X120997280Y-129529686D01*
X120997268Y-129529688D01*
X120734405Y-129589684D01*
X120734397Y-129589687D01*
X120479917Y-129678734D01*
X120237005Y-129795714D01*
X120008712Y-129939161D01*
X119797915Y-130107265D01*
X119607265Y-130297915D01*
X119521447Y-130405528D01*
X119464258Y-130445668D01*
X119394447Y-130448518D01*
X119334177Y-130413172D01*
X119302584Y-130350853D01*
X119300500Y-130328215D01*
X119300500Y-129259982D01*
X124649500Y-129259982D01*
X124649500Y-131060017D01*
X124660000Y-131162796D01*
X124715185Y-131329332D01*
X124715186Y-131329335D01*
X124807288Y-131478656D01*
X124931344Y-131602712D01*
X125080665Y-131694814D01*
X125247202Y-131749999D01*
X125349990Y-131760500D01*
X125349995Y-131760500D01*
X125806425Y-131760500D01*
X125873464Y-131780185D01*
X125919219Y-131832989D01*
X125929163Y-131902147D01*
X125900138Y-131965703D01*
X125875316Y-131987602D01*
X125739711Y-132078210D01*
X125739707Y-132078213D01*
X125628213Y-132189707D01*
X125628210Y-132189711D01*
X125540609Y-132320814D01*
X125540602Y-132320827D01*
X125480264Y-132466498D01*
X125480261Y-132466510D01*
X125449500Y-132621153D01*
X125449500Y-132778846D01*
X125480261Y-132933489D01*
X125480264Y-132933501D01*
X125540602Y-133079172D01*
X125540609Y-133079185D01*
X125628210Y-133210288D01*
X125628213Y-133210292D01*
X125739707Y-133321786D01*
X125739711Y-133321789D01*
X125870814Y-133409390D01*
X125870827Y-133409397D01*
X126016498Y-133469735D01*
X126016503Y-133469737D01*
X126171153Y-133500499D01*
X126171156Y-133500500D01*
X126171158Y-133500500D01*
X126328844Y-133500500D01*
X126328845Y-133500499D01*
X126483497Y-133469737D01*
X126629179Y-133409394D01*
X126760289Y-133321789D01*
X126871789Y-133210289D01*
X126959394Y-133079179D01*
X127019737Y-132933497D01*
X127050500Y-132778842D01*
X127050500Y-132621158D01*
X127050500Y-132621155D01*
X127050499Y-132621153D01*
X127989500Y-132621153D01*
X127989500Y-132778846D01*
X128020261Y-132933489D01*
X128020264Y-132933501D01*
X128080602Y-133079172D01*
X128080609Y-133079185D01*
X128168210Y-133210288D01*
X128168213Y-133210292D01*
X128279707Y-133321786D01*
X128279711Y-133321789D01*
X128410814Y-133409390D01*
X128410827Y-133409397D01*
X128556498Y-133469735D01*
X128556503Y-133469737D01*
X128711153Y-133500499D01*
X128711156Y-133500500D01*
X128711158Y-133500500D01*
X128868844Y-133500500D01*
X128868845Y-133500499D01*
X129023497Y-133469737D01*
X129169179Y-133409394D01*
X129300289Y-133321789D01*
X129411789Y-133210289D01*
X129499394Y-133079179D01*
X129559737Y-132933497D01*
X129590500Y-132778842D01*
X129590500Y-132621158D01*
X129590500Y-132621155D01*
X129590499Y-132621153D01*
X129579449Y-132565602D01*
X129559737Y-132466503D01*
X129559735Y-132466498D01*
X129499397Y-132320827D01*
X129499390Y-132320814D01*
X129411789Y-132189711D01*
X129411786Y-132189707D01*
X129300292Y-132078213D01*
X129300288Y-132078210D01*
X129169185Y-131990609D01*
X129169172Y-131990602D01*
X129023501Y-131930264D01*
X129023489Y-131930261D01*
X128868845Y-131899500D01*
X128868842Y-131899500D01*
X128711158Y-131899500D01*
X128711155Y-131899500D01*
X128556510Y-131930261D01*
X128556498Y-131930264D01*
X128410827Y-131990602D01*
X128410814Y-131990609D01*
X128279711Y-132078210D01*
X128279707Y-132078213D01*
X128168213Y-132189707D01*
X128168210Y-132189711D01*
X128080609Y-132320814D01*
X128080602Y-132320827D01*
X128020264Y-132466498D01*
X128020261Y-132466510D01*
X127989500Y-132621153D01*
X127050499Y-132621153D01*
X127039449Y-132565602D01*
X127019737Y-132466503D01*
X127019735Y-132466498D01*
X126959397Y-132320827D01*
X126959390Y-132320814D01*
X126871789Y-132189711D01*
X126871786Y-132189707D01*
X126760292Y-132078213D01*
X126760288Y-132078210D01*
X126624684Y-131987602D01*
X126579879Y-131933990D01*
X126571172Y-131864665D01*
X126601326Y-131801637D01*
X126660770Y-131764918D01*
X126693575Y-131760500D01*
X127150005Y-131760500D01*
X127150010Y-131760500D01*
X127252798Y-131749999D01*
X127419335Y-131694814D01*
X127568656Y-131602712D01*
X127692712Y-131478656D01*
X127784814Y-131329335D01*
X127839999Y-131162798D01*
X127850500Y-131060010D01*
X127850500Y-130034038D01*
X129729500Y-130034038D01*
X129729500Y-130285961D01*
X129768910Y-130534785D01*
X129846760Y-130774383D01*
X129961132Y-130998848D01*
X130109201Y-131202649D01*
X130109205Y-131202654D01*
X130287345Y-131380794D01*
X130287350Y-131380798D01*
X130447658Y-131497268D01*
X130491155Y-131528870D01*
X130634184Y-131601747D01*
X130715616Y-131643239D01*
X130715618Y-131643239D01*
X130715621Y-131643241D01*
X130955215Y-131721090D01*
X130986866Y-131726103D01*
X130988469Y-131726357D01*
X131051603Y-131756286D01*
X131088535Y-131815597D01*
X131087537Y-131885460D01*
X131048927Y-131943693D01*
X131016523Y-131963391D01*
X130950827Y-131990602D01*
X130950814Y-131990609D01*
X130819711Y-132078210D01*
X130819707Y-132078213D01*
X130708213Y-132189707D01*
X130708210Y-132189711D01*
X130620609Y-132320814D01*
X130620602Y-132320827D01*
X130560264Y-132466498D01*
X130560261Y-132466510D01*
X130529500Y-132621153D01*
X130529500Y-132778846D01*
X130560261Y-132933489D01*
X130560264Y-132933501D01*
X130620602Y-133079172D01*
X130620609Y-133079185D01*
X130708210Y-133210288D01*
X130708213Y-133210292D01*
X130819707Y-133321786D01*
X130819711Y-133321789D01*
X130950814Y-133409390D01*
X130950827Y-133409397D01*
X131096498Y-133469735D01*
X131096503Y-133469737D01*
X131251153Y-133500499D01*
X131251156Y-133500500D01*
X131251158Y-133500500D01*
X131408844Y-133500500D01*
X131408845Y-133500499D01*
X131563497Y-133469737D01*
X131709179Y-133409394D01*
X131840289Y-133321789D01*
X131951789Y-133210289D01*
X132039394Y-133079179D01*
X132099737Y-132933497D01*
X132130500Y-132778842D01*
X132130500Y-132621158D01*
X132130500Y-132621155D01*
X132130499Y-132621153D01*
X132119449Y-132565602D01*
X132099737Y-132466503D01*
X132099735Y-132466498D01*
X132039397Y-132320827D01*
X132039390Y-132320814D01*
X131951789Y-132189711D01*
X131951786Y-132189707D01*
X131840292Y-132078213D01*
X131840288Y-132078210D01*
X131709185Y-131990609D01*
X131709173Y-131990602D01*
X131643476Y-131963391D01*
X131589072Y-131919551D01*
X131567007Y-131853257D01*
X131584286Y-131785557D01*
X131635423Y-131737947D01*
X131671531Y-131726357D01*
X131704785Y-131721090D01*
X131704788Y-131721089D01*
X131944379Y-131643241D01*
X132168845Y-131528870D01*
X132372656Y-131380793D01*
X132550793Y-131202656D01*
X132698870Y-130998845D01*
X132813241Y-130774379D01*
X132891090Y-130534785D01*
X132930500Y-130285962D01*
X132930500Y-130034038D01*
X132929695Y-130028959D01*
X132938648Y-129959669D01*
X132964484Y-129921882D01*
X134382952Y-128503416D01*
X134432186Y-128429729D01*
X134465084Y-128380495D01*
X134521658Y-128243913D01*
X134550500Y-128098918D01*
X134550500Y-111062229D01*
X134570185Y-110995190D01*
X134586819Y-110974548D01*
X140382948Y-105178419D01*
X140382951Y-105178416D01*
X140406138Y-105143713D01*
X141199500Y-105143713D01*
X141199500Y-105356286D01*
X141232753Y-105566239D01*
X141298444Y-105768414D01*
X141394951Y-105957820D01*
X141519890Y-106129786D01*
X141670213Y-106280109D01*
X141842182Y-106405050D01*
X141850946Y-106409516D01*
X141901742Y-106457491D01*
X141918536Y-106525312D01*
X141895998Y-106591447D01*
X141850946Y-106630484D01*
X141842182Y-106634949D01*
X141670213Y-106759890D01*
X141519890Y-106910213D01*
X141394951Y-107082179D01*
X141298444Y-107271585D01*
X141232753Y-107473760D01*
X141199500Y-107683713D01*
X141199500Y-107896286D01*
X141232753Y-108106239D01*
X141298444Y-108308414D01*
X141394951Y-108497820D01*
X141519890Y-108669786D01*
X141670213Y-108820109D01*
X141842179Y-108945048D01*
X141842181Y-108945049D01*
X141842184Y-108945051D01*
X142031588Y-109041557D01*
X142233757Y-109107246D01*
X142443713Y-109140500D01*
X142443714Y-109140500D01*
X142656286Y-109140500D01*
X142656287Y-109140500D01*
X142866243Y-109107246D01*
X143068412Y-109041557D01*
X143257816Y-108945051D01*
X143279789Y-108929086D01*
X143429786Y-108820109D01*
X143429788Y-108820106D01*
X143429792Y-108820104D01*
X143580104Y-108669792D01*
X143580106Y-108669788D01*
X143580109Y-108669786D01*
X143705048Y-108497820D01*
X143705047Y-108497820D01*
X143705051Y-108497816D01*
X143709514Y-108489054D01*
X143757488Y-108438259D01*
X143825308Y-108421463D01*
X143891444Y-108443999D01*
X143930486Y-108489056D01*
X143934951Y-108497820D01*
X144059890Y-108669786D01*
X144210213Y-108820109D01*
X144382179Y-108945048D01*
X144382181Y-108945049D01*
X144382184Y-108945051D01*
X144571588Y-109041557D01*
X144773757Y-109107246D01*
X144983713Y-109140500D01*
X144983714Y-109140500D01*
X145196286Y-109140500D01*
X145196287Y-109140500D01*
X145406243Y-109107246D01*
X145608412Y-109041557D01*
X145797816Y-108945051D01*
X145819789Y-108929086D01*
X145969786Y-108820109D01*
X145969788Y-108820106D01*
X145969792Y-108820104D01*
X146120104Y-108669792D01*
X146120106Y-108669788D01*
X146120109Y-108669786D01*
X146245048Y-108497820D01*
X146245047Y-108497820D01*
X146245051Y-108497816D01*
X146249514Y-108489054D01*
X146297488Y-108438259D01*
X146365308Y-108421463D01*
X146431444Y-108443999D01*
X146470486Y-108489056D01*
X146474951Y-108497820D01*
X146599890Y-108669786D01*
X146750213Y-108820109D01*
X146922179Y-108945048D01*
X146922181Y-108945049D01*
X146922184Y-108945051D01*
X147111588Y-109041557D01*
X147313757Y-109107246D01*
X147523713Y-109140500D01*
X147523714Y-109140500D01*
X147736286Y-109140500D01*
X147736287Y-109140500D01*
X147946243Y-109107246D01*
X148148412Y-109041557D01*
X148337816Y-108945051D01*
X148359789Y-108929086D01*
X148509786Y-108820109D01*
X148509788Y-108820106D01*
X148509792Y-108820104D01*
X148660104Y-108669792D01*
X148660106Y-108669788D01*
X148660109Y-108669786D01*
X148785048Y-108497820D01*
X148785047Y-108497820D01*
X148785051Y-108497816D01*
X148881557Y-108308412D01*
X148947246Y-108106243D01*
X148980500Y-107896287D01*
X148980500Y-107683713D01*
X148947246Y-107473757D01*
X148881557Y-107271588D01*
X148785051Y-107082184D01*
X148785049Y-107082181D01*
X148785048Y-107082179D01*
X148660109Y-106910213D01*
X148546569Y-106796673D01*
X148513084Y-106735350D01*
X148518068Y-106665658D01*
X148559940Y-106609725D01*
X148590915Y-106592810D01*
X148722331Y-106543796D01*
X148837546Y-106457546D01*
X148923796Y-106342331D01*
X148974091Y-106207483D01*
X148980500Y-106147873D01*
X148980499Y-104352128D01*
X148974091Y-104292517D01*
X148972810Y-104289083D01*
X148923797Y-104157671D01*
X148923793Y-104157664D01*
X148837547Y-104042455D01*
X148837544Y-104042452D01*
X148722335Y-103956206D01*
X148722328Y-103956202D01*
X148587482Y-103905908D01*
X148587483Y-103905908D01*
X148527883Y-103899501D01*
X148527881Y-103899500D01*
X148527873Y-103899500D01*
X148527865Y-103899500D01*
X148504500Y-103899500D01*
X148495814Y-103896949D01*
X148486853Y-103898238D01*
X148462812Y-103887259D01*
X148437461Y-103879815D01*
X148431533Y-103872974D01*
X148423297Y-103869213D01*
X148409007Y-103846978D01*
X148391706Y-103827011D01*
X148389418Y-103816496D01*
X148385523Y-103810435D01*
X148380500Y-103775500D01*
X148380500Y-103637229D01*
X148400185Y-103570190D01*
X148416819Y-103549548D01*
X149459548Y-102506819D01*
X149520871Y-102473334D01*
X149547229Y-102470500D01*
X152974739Y-102470500D01*
X153022191Y-102479938D01*
X153161918Y-102537816D01*
X153326228Y-102570499D01*
X153326232Y-102570500D01*
X153326233Y-102570500D01*
X153493768Y-102570500D01*
X153493769Y-102570499D01*
X153658082Y-102537816D01*
X153812863Y-102473703D01*
X153952162Y-102380626D01*
X154070626Y-102262162D01*
X154163703Y-102122863D01*
X154227816Y-101968082D01*
X154260500Y-101803767D01*
X154260500Y-101636233D01*
X154227816Y-101471918D01*
X154163703Y-101317137D01*
X154113219Y-101241582D01*
X154070626Y-101177837D01*
X153952162Y-101059373D01*
X153812860Y-100966295D01*
X153658082Y-100902184D01*
X153658074Y-100902182D01*
X153493771Y-100869500D01*
X153493767Y-100869500D01*
X153326233Y-100869500D01*
X153326228Y-100869500D01*
X153161925Y-100902182D01*
X153161917Y-100902184D01*
X153022192Y-100960061D01*
X152974739Y-100969500D01*
X149111080Y-100969500D01*
X148966092Y-100998340D01*
X148966082Y-100998343D01*
X148829511Y-101054912D01*
X148829504Y-101054916D01*
X148799885Y-101074707D01*
X148770265Y-101094499D01*
X148770264Y-101094500D01*
X148706581Y-101137050D01*
X147047050Y-102796581D01*
X147047048Y-102796584D01*
X147027339Y-102826082D01*
X146964914Y-102919507D01*
X146908343Y-103056082D01*
X146908340Y-103056092D01*
X146879500Y-103201079D01*
X146879500Y-103775500D01*
X146859815Y-103842539D01*
X146807011Y-103888294D01*
X146755505Y-103899500D01*
X146732132Y-103899500D01*
X146732123Y-103899501D01*
X146672516Y-103905908D01*
X146537671Y-103956202D01*
X146537664Y-103956206D01*
X146422455Y-104042452D01*
X146422452Y-104042455D01*
X146336206Y-104157664D01*
X146336203Y-104157669D01*
X146287189Y-104289083D01*
X146245317Y-104345016D01*
X146179853Y-104369433D01*
X146111580Y-104354581D01*
X146083326Y-104333430D01*
X145969786Y-104219890D01*
X145797820Y-104094951D01*
X145608414Y-103998444D01*
X145608413Y-103998443D01*
X145608412Y-103998443D01*
X145406243Y-103932754D01*
X145406241Y-103932753D01*
X145406240Y-103932753D01*
X145244957Y-103907208D01*
X145196287Y-103899500D01*
X144983713Y-103899500D01*
X144935042Y-103907208D01*
X144773760Y-103932753D01*
X144571585Y-103998444D01*
X144382179Y-104094951D01*
X144210213Y-104219890D01*
X144059890Y-104370213D01*
X143934949Y-104542182D01*
X143930484Y-104550946D01*
X143882509Y-104601742D01*
X143814688Y-104618536D01*
X143748553Y-104595998D01*
X143709516Y-104550946D01*
X143705050Y-104542182D01*
X143580109Y-104370213D01*
X143429786Y-104219890D01*
X143257820Y-104094951D01*
X143068414Y-103998444D01*
X143068413Y-103998443D01*
X143068412Y-103998443D01*
X142866243Y-103932754D01*
X142866241Y-103932753D01*
X142866240Y-103932753D01*
X142704957Y-103907208D01*
X142656287Y-103899500D01*
X142443713Y-103899500D01*
X142395042Y-103907208D01*
X142233760Y-103932753D01*
X142031585Y-103998444D01*
X141842179Y-104094951D01*
X141670213Y-104219890D01*
X141519890Y-104370213D01*
X141394951Y-104542179D01*
X141298444Y-104731585D01*
X141232753Y-104933760D01*
X141199500Y-105143713D01*
X140406138Y-105143713D01*
X140424394Y-105116390D01*
X140455426Y-105069950D01*
X140459591Y-105063714D01*
X140465084Y-105055495D01*
X140521658Y-104918913D01*
X140531096Y-104871462D01*
X140550500Y-104773920D01*
X140550500Y-103335261D01*
X140559939Y-103287808D01*
X140595862Y-103201082D01*
X140617816Y-103148082D01*
X140650500Y-102983767D01*
X140650500Y-102816233D01*
X140617816Y-102651918D01*
X140568227Y-102532201D01*
X140553704Y-102497139D01*
X140542211Y-102479939D01*
X140475853Y-102380626D01*
X140460626Y-102357837D01*
X140342162Y-102239373D01*
X140202860Y-102146295D01*
X140048082Y-102082184D01*
X140048074Y-102082182D01*
X139883771Y-102049500D01*
X139883767Y-102049500D01*
X139716233Y-102049500D01*
X139716228Y-102049500D01*
X139551925Y-102082182D01*
X139551917Y-102082184D01*
X139397139Y-102146295D01*
X139257837Y-102239373D01*
X139139373Y-102357837D01*
X139046295Y-102497139D01*
X138982184Y-102651917D01*
X138982182Y-102651925D01*
X138949500Y-102816228D01*
X138949500Y-102983771D01*
X138982182Y-103148074D01*
X138982184Y-103148082D01*
X139040061Y-103287808D01*
X139049500Y-103335261D01*
X139049500Y-104337770D01*
X139029815Y-104404809D01*
X139013181Y-104425451D01*
X133217049Y-110221582D01*
X133217045Y-110221586D01*
X133198395Y-110249501D01*
X133198394Y-110249502D01*
X133134916Y-110344503D01*
X133134914Y-110344506D01*
X133078343Y-110481082D01*
X133078340Y-110481092D01*
X133049500Y-110626079D01*
X133049500Y-127662769D01*
X133029815Y-127729808D01*
X133013181Y-127750450D01*
X132102479Y-128661151D01*
X132041156Y-128694636D01*
X131971464Y-128689652D01*
X131958505Y-128683956D01*
X131944383Y-128676761D01*
X131944382Y-128676760D01*
X131944379Y-128676759D01*
X131704785Y-128598910D01*
X131455962Y-128559500D01*
X131204038Y-128559500D01*
X131137738Y-128570001D01*
X130955214Y-128598910D01*
X130715616Y-128676760D01*
X130491151Y-128791132D01*
X130287350Y-128939201D01*
X130287345Y-128939205D01*
X130109205Y-129117345D01*
X130109201Y-129117350D01*
X129961132Y-129321151D01*
X129846760Y-129545616D01*
X129768910Y-129785214D01*
X129729500Y-130034038D01*
X127850500Y-130034038D01*
X127850500Y-129259990D01*
X127839999Y-129157202D01*
X127784814Y-128990665D01*
X127692712Y-128841344D01*
X127568656Y-128717288D01*
X127419335Y-128625186D01*
X127252798Y-128570001D01*
X127252796Y-128570000D01*
X127150017Y-128559500D01*
X127150010Y-128559500D01*
X125349990Y-128559500D01*
X125349982Y-128559500D01*
X125247203Y-128570000D01*
X125247202Y-128570001D01*
X125164669Y-128597349D01*
X125080667Y-128625185D01*
X125080662Y-128625187D01*
X124931342Y-128717289D01*
X124807289Y-128841342D01*
X124715187Y-128990662D01*
X124715186Y-128990665D01*
X124660001Y-129157202D01*
X124660001Y-129157203D01*
X124660000Y-129157203D01*
X124649500Y-129259982D01*
X119300500Y-129259982D01*
X119300500Y-112916228D01*
X124749500Y-112916228D01*
X124749500Y-113083771D01*
X124782182Y-113248074D01*
X124782184Y-113248082D01*
X124846295Y-113402860D01*
X124939373Y-113542162D01*
X125057837Y-113660626D01*
X125150494Y-113722537D01*
X125197137Y-113753703D01*
X125351918Y-113817816D01*
X125516228Y-113850499D01*
X125516232Y-113850500D01*
X125516233Y-113850500D01*
X125683768Y-113850500D01*
X125683769Y-113850499D01*
X125848082Y-113817816D01*
X126002863Y-113753703D01*
X126142162Y-113660626D01*
X126260626Y-113542162D01*
X126353703Y-113402863D01*
X126417816Y-113248082D01*
X126450500Y-113083767D01*
X126450500Y-112916233D01*
X126417816Y-112751918D01*
X126359938Y-112612191D01*
X126350500Y-112564739D01*
X126350500Y-111893713D01*
X127559500Y-111893713D01*
X127559500Y-112106286D01*
X127592753Y-112316239D01*
X127658444Y-112518414D01*
X127754951Y-112707820D01*
X127879890Y-112879786D01*
X128030213Y-113030109D01*
X128202182Y-113155050D01*
X128210946Y-113159516D01*
X128261742Y-113207491D01*
X128278536Y-113275312D01*
X128255998Y-113341447D01*
X128210946Y-113380484D01*
X128202182Y-113384949D01*
X128030213Y-113509890D01*
X127879890Y-113660213D01*
X127754951Y-113832179D01*
X127658444Y-114021585D01*
X127592753Y-114223760D01*
X127559500Y-114433713D01*
X127559500Y-114646286D01*
X127592753Y-114856239D01*
X127658444Y-115058414D01*
X127754951Y-115247820D01*
X127879890Y-115419786D01*
X128030213Y-115570109D01*
X128202179Y-115695048D01*
X128202181Y-115695049D01*
X128202184Y-115695051D01*
X128391588Y-115791557D01*
X128593757Y-115857246D01*
X128803713Y-115890500D01*
X128803714Y-115890500D01*
X129016286Y-115890500D01*
X129016287Y-115890500D01*
X129226243Y-115857246D01*
X129428412Y-115791557D01*
X129617816Y-115695051D01*
X129639789Y-115679086D01*
X129789786Y-115570109D01*
X129789788Y-115570106D01*
X129789792Y-115570104D01*
X129940104Y-115419792D01*
X129940106Y-115419788D01*
X129940109Y-115419786D01*
X130065048Y-115247820D01*
X130065047Y-115247820D01*
X130065051Y-115247816D01*
X130069514Y-115239054D01*
X130117488Y-115188259D01*
X130185308Y-115171463D01*
X130251444Y-115193999D01*
X130290486Y-115239056D01*
X130294951Y-115247820D01*
X130419890Y-115419786D01*
X130570213Y-115570109D01*
X130742179Y-115695048D01*
X130742181Y-115695049D01*
X130742184Y-115695051D01*
X130931588Y-115791557D01*
X131133757Y-115857246D01*
X131343713Y-115890500D01*
X131343714Y-115890500D01*
X131556286Y-115890500D01*
X131556287Y-115890500D01*
X131766243Y-115857246D01*
X131968412Y-115791557D01*
X132157816Y-115695051D01*
X132179789Y-115679086D01*
X132329786Y-115570109D01*
X132329788Y-115570106D01*
X132329792Y-115570104D01*
X132480104Y-115419792D01*
X132480106Y-115419788D01*
X132480109Y-115419786D01*
X132605048Y-115247820D01*
X132605047Y-115247820D01*
X132605051Y-115247816D01*
X132701557Y-115058412D01*
X132767246Y-114856243D01*
X132800500Y-114646287D01*
X132800500Y-114433713D01*
X132767246Y-114223757D01*
X132701557Y-114021588D01*
X132605051Y-113832184D01*
X132605049Y-113832181D01*
X132605048Y-113832179D01*
X132480109Y-113660213D01*
X132366569Y-113546673D01*
X132333084Y-113485350D01*
X132338068Y-113415658D01*
X132379940Y-113359725D01*
X132410915Y-113342810D01*
X132542331Y-113293796D01*
X132657546Y-113207546D01*
X132743796Y-113092331D01*
X132794091Y-112957483D01*
X132800500Y-112897873D01*
X132800499Y-111102128D01*
X132794091Y-111042517D01*
X132792810Y-111039083D01*
X132743797Y-110907671D01*
X132743793Y-110907664D01*
X132657547Y-110792455D01*
X132657544Y-110792452D01*
X132542335Y-110706206D01*
X132542328Y-110706202D01*
X132407482Y-110655908D01*
X132407483Y-110655908D01*
X132347883Y-110649501D01*
X132347881Y-110649500D01*
X132347873Y-110649500D01*
X132347864Y-110649500D01*
X130552129Y-110649500D01*
X130552123Y-110649501D01*
X130492516Y-110655908D01*
X130357671Y-110706202D01*
X130357664Y-110706206D01*
X130242455Y-110792452D01*
X130242452Y-110792455D01*
X130156206Y-110907664D01*
X130156203Y-110907669D01*
X130107189Y-111039083D01*
X130065317Y-111095016D01*
X129999853Y-111119433D01*
X129931580Y-111104581D01*
X129903326Y-111083430D01*
X129789786Y-110969890D01*
X129617820Y-110844951D01*
X129428414Y-110748444D01*
X129428413Y-110748443D01*
X129428412Y-110748443D01*
X129226243Y-110682754D01*
X129226241Y-110682753D01*
X129226240Y-110682753D01*
X129064957Y-110657208D01*
X129016287Y-110649500D01*
X128803713Y-110649500D01*
X128755042Y-110657208D01*
X128593760Y-110682753D01*
X128391585Y-110748444D01*
X128202179Y-110844951D01*
X128030213Y-110969890D01*
X127879890Y-111120213D01*
X127754951Y-111292179D01*
X127658444Y-111481585D01*
X127592753Y-111683760D01*
X127559500Y-111893713D01*
X126350500Y-111893713D01*
X126350500Y-99712229D01*
X126370185Y-99645190D01*
X126386814Y-99624553D01*
X128695139Y-97316228D01*
X142049500Y-97316228D01*
X142049500Y-97483771D01*
X142082182Y-97648074D01*
X142082184Y-97648082D01*
X142146295Y-97802860D01*
X142239373Y-97942162D01*
X142357837Y-98060626D01*
X142428494Y-98107837D01*
X142497137Y-98153703D01*
X142497138Y-98153703D01*
X142497139Y-98153704D01*
X142497141Y-98153705D01*
X142551353Y-98176160D01*
X142636864Y-98211580D01*
X142677091Y-98238459D01*
X143671586Y-99232954D01*
X143706370Y-99256194D01*
X143723763Y-99267816D01*
X143794505Y-99315084D01*
X143931087Y-99371658D01*
X143931091Y-99371658D01*
X143931092Y-99371659D01*
X144076079Y-99400500D01*
X144076082Y-99400500D01*
X144076083Y-99400500D01*
X144223917Y-99400500D01*
X144914739Y-99400500D01*
X144962191Y-99409938D01*
X145101918Y-99467816D01*
X145266228Y-99500499D01*
X145266232Y-99500500D01*
X145266233Y-99500500D01*
X145433768Y-99500500D01*
X145433769Y-99500499D01*
X145598082Y-99467816D01*
X145752863Y-99403703D01*
X145892162Y-99310626D01*
X146010626Y-99192162D01*
X146103703Y-99052863D01*
X146167816Y-98898082D01*
X146200500Y-98733767D01*
X146200500Y-98566233D01*
X146167816Y-98401918D01*
X146103703Y-98247137D01*
X146063430Y-98186864D01*
X146010626Y-98107837D01*
X145892162Y-97989373D01*
X145752860Y-97896295D01*
X145598082Y-97832184D01*
X145598074Y-97832182D01*
X145433771Y-97799500D01*
X145433767Y-97799500D01*
X145266233Y-97799500D01*
X145266228Y-97799500D01*
X145101925Y-97832182D01*
X145101917Y-97832184D01*
X144962192Y-97890061D01*
X144914739Y-97899500D01*
X144512230Y-97899500D01*
X144445191Y-97879815D01*
X144424549Y-97863181D01*
X143738459Y-97177091D01*
X143711580Y-97136864D01*
X143653703Y-96997137D01*
X143622537Y-96950494D01*
X143560626Y-96857837D01*
X143442162Y-96739373D01*
X143302860Y-96646295D01*
X143148082Y-96582184D01*
X143148074Y-96582182D01*
X142983771Y-96549500D01*
X142983767Y-96549500D01*
X142816233Y-96549500D01*
X142816228Y-96549500D01*
X142651925Y-96582182D01*
X142651917Y-96582184D01*
X142497139Y-96646295D01*
X142357837Y-96739373D01*
X142239373Y-96857837D01*
X142146295Y-96997139D01*
X142082184Y-97151917D01*
X142082182Y-97151925D01*
X142049500Y-97316228D01*
X128695139Y-97316228D01*
X130117653Y-95893713D01*
X145099500Y-95893713D01*
X145099500Y-96106286D01*
X145132753Y-96316239D01*
X145198444Y-96518414D01*
X145294951Y-96707820D01*
X145419890Y-96879786D01*
X145570213Y-97030109D01*
X145742179Y-97155048D01*
X145742181Y-97155049D01*
X145742184Y-97155051D01*
X145931588Y-97251557D01*
X146133757Y-97317246D01*
X146343713Y-97350500D01*
X146343714Y-97350500D01*
X146556286Y-97350500D01*
X146556287Y-97350500D01*
X146766243Y-97317246D01*
X146968412Y-97251557D01*
X147157816Y-97155051D01*
X147182851Y-97136862D01*
X147329786Y-97030109D01*
X147329788Y-97030106D01*
X147329792Y-97030104D01*
X147480104Y-96879792D01*
X147480106Y-96879788D01*
X147480109Y-96879786D01*
X147605048Y-96707820D01*
X147605047Y-96707820D01*
X147605051Y-96707816D01*
X147701557Y-96518412D01*
X147767246Y-96316243D01*
X147800500Y-96106287D01*
X147800500Y-95893713D01*
X147767246Y-95683757D01*
X147701557Y-95481588D01*
X147605051Y-95292184D01*
X147605049Y-95292181D01*
X147605048Y-95292179D01*
X147480109Y-95120213D01*
X147329786Y-94969890D01*
X147157820Y-94844951D01*
X146968414Y-94748444D01*
X146968413Y-94748443D01*
X146968412Y-94748443D01*
X146766243Y-94682754D01*
X146766241Y-94682753D01*
X146766240Y-94682753D01*
X146604957Y-94657208D01*
X146556287Y-94649500D01*
X146343713Y-94649500D01*
X146295042Y-94657208D01*
X146133760Y-94682753D01*
X145931585Y-94748444D01*
X145742179Y-94844951D01*
X145570213Y-94969890D01*
X145419890Y-95120213D01*
X145294951Y-95292179D01*
X145198444Y-95481585D01*
X145132753Y-95683760D01*
X145099500Y-95893713D01*
X130117653Y-95893713D01*
X131197492Y-94813874D01*
X131258813Y-94780391D01*
X131304565Y-94779084D01*
X131439778Y-94800500D01*
X131439780Y-94800500D01*
X131660221Y-94800500D01*
X131660222Y-94800500D01*
X131877951Y-94766015D01*
X132087606Y-94697895D01*
X132284022Y-94597815D01*
X132462365Y-94468242D01*
X132618242Y-94312365D01*
X132747815Y-94134022D01*
X132847895Y-93937606D01*
X132916015Y-93727951D01*
X132950500Y-93510222D01*
X132950500Y-93289778D01*
X132916015Y-93072049D01*
X132847895Y-92862394D01*
X132847895Y-92862393D01*
X132813237Y-92794375D01*
X132747815Y-92665978D01*
X132689501Y-92585715D01*
X132618247Y-92487641D01*
X132618243Y-92487636D01*
X132462363Y-92331756D01*
X132462358Y-92331752D01*
X132284025Y-92202187D01*
X132284024Y-92202186D01*
X132284022Y-92202185D01*
X132166791Y-92142452D01*
X132087606Y-92102104D01*
X132087603Y-92102103D01*
X131877952Y-92033985D01*
X131769086Y-92016742D01*
X131660222Y-91999500D01*
X131439778Y-91999500D01*
X131367201Y-92010995D01*
X131222047Y-92033985D01*
X131012396Y-92102103D01*
X131012393Y-92102104D01*
X130815974Y-92202187D01*
X130637641Y-92331752D01*
X130637636Y-92331756D01*
X130587463Y-92381929D01*
X130526140Y-92415413D01*
X130456448Y-92410428D01*
X130400515Y-92368557D01*
X130383601Y-92337580D01*
X130353797Y-92257671D01*
X130353793Y-92257664D01*
X130267547Y-92142455D01*
X130267544Y-92142452D01*
X130152335Y-92056206D01*
X130152328Y-92056202D01*
X130017482Y-92005908D01*
X130017483Y-92005908D01*
X129957883Y-91999501D01*
X129957881Y-91999500D01*
X129957873Y-91999500D01*
X129957864Y-91999500D01*
X128062129Y-91999500D01*
X128062123Y-91999501D01*
X128002516Y-92005908D01*
X127867671Y-92056202D01*
X127867664Y-92056206D01*
X127752455Y-92142452D01*
X127752452Y-92142455D01*
X127666206Y-92257664D01*
X127666202Y-92257671D01*
X127615908Y-92392517D01*
X127609501Y-92452116D01*
X127609500Y-92452135D01*
X127609500Y-94347870D01*
X127609501Y-94347876D01*
X127615908Y-94407483D01*
X127666202Y-94542328D01*
X127666206Y-94542335D01*
X127752452Y-94657544D01*
X127752455Y-94657547D01*
X127867664Y-94743793D01*
X127867671Y-94743797D01*
X128002517Y-94794091D01*
X128002516Y-94794091D01*
X128009444Y-94794835D01*
X128062127Y-94800500D01*
X128788769Y-94800499D01*
X128855808Y-94820183D01*
X128901563Y-94872987D01*
X128911507Y-94942146D01*
X128882482Y-95005702D01*
X128876450Y-95012180D01*
X125017050Y-98871581D01*
X125017044Y-98871589D01*
X124979074Y-98928415D01*
X124979075Y-98928416D01*
X124934913Y-98994508D01*
X124878343Y-99131082D01*
X124878340Y-99131092D01*
X124849500Y-99276079D01*
X124849500Y-112564739D01*
X124840061Y-112612192D01*
X124782184Y-112751917D01*
X124782182Y-112751925D01*
X124749500Y-112916228D01*
X119300500Y-112916228D01*
X119300500Y-110816228D01*
X119899500Y-110816228D01*
X119899500Y-110983771D01*
X119932182Y-111148074D01*
X119932184Y-111148082D01*
X119996295Y-111302860D01*
X120089373Y-111442162D01*
X120207837Y-111560626D01*
X120300494Y-111622537D01*
X120347137Y-111653703D01*
X120501918Y-111717816D01*
X120666228Y-111750499D01*
X120666232Y-111750500D01*
X120666233Y-111750500D01*
X120833768Y-111750500D01*
X120833769Y-111750499D01*
X120998082Y-111717816D01*
X121152863Y-111653703D01*
X121292162Y-111560626D01*
X121410626Y-111442162D01*
X121503703Y-111302863D01*
X121567816Y-111148082D01*
X121600500Y-110983767D01*
X121600500Y-110816233D01*
X121567816Y-110651918D01*
X121509938Y-110512191D01*
X121500500Y-110464739D01*
X121500500Y-102012229D01*
X121520185Y-101945190D01*
X121536819Y-101924548D01*
X122591867Y-100869500D01*
X124172908Y-99288458D01*
X124213130Y-99261582D01*
X124352863Y-99203703D01*
X124492162Y-99110626D01*
X124610626Y-98992162D01*
X124703703Y-98852863D01*
X124767816Y-98698082D01*
X124800500Y-98533767D01*
X124800500Y-98366233D01*
X124767816Y-98201918D01*
X124703703Y-98047137D01*
X124633561Y-97942162D01*
X124610626Y-97907837D01*
X124492162Y-97789373D01*
X124352860Y-97696295D01*
X124198082Y-97632184D01*
X124198074Y-97632182D01*
X124033771Y-97599500D01*
X124033767Y-97599500D01*
X123866233Y-97599500D01*
X123866228Y-97599500D01*
X123701925Y-97632182D01*
X123701917Y-97632184D01*
X123547139Y-97696295D01*
X123407837Y-97789373D01*
X123289373Y-97907837D01*
X123196296Y-98047137D01*
X123138419Y-98186864D01*
X123111539Y-98227091D01*
X120167048Y-101171583D01*
X120162869Y-101177838D01*
X120120277Y-101241584D01*
X120084914Y-101294507D01*
X120084913Y-101294509D01*
X120028343Y-101431082D01*
X120028340Y-101431092D01*
X119999500Y-101576079D01*
X119999500Y-110464739D01*
X119990061Y-110512192D01*
X119932184Y-110651917D01*
X119932182Y-110651925D01*
X119899500Y-110816228D01*
X119300500Y-110816228D01*
X119300500Y-90813713D01*
X145099500Y-90813713D01*
X145099500Y-91026286D01*
X145132753Y-91236239D01*
X145198444Y-91438414D01*
X145294951Y-91627820D01*
X145419890Y-91799786D01*
X145570213Y-91950109D01*
X145742179Y-92075048D01*
X145742181Y-92075049D01*
X145742184Y-92075051D01*
X145931588Y-92171557D01*
X146133757Y-92237246D01*
X146343713Y-92270500D01*
X146343714Y-92270500D01*
X146556286Y-92270500D01*
X146556287Y-92270500D01*
X146766243Y-92237246D01*
X146968412Y-92171557D01*
X147157816Y-92075051D01*
X147214339Y-92033985D01*
X147329786Y-91950109D01*
X147329788Y-91950106D01*
X147329792Y-91950104D01*
X147480104Y-91799792D01*
X147480106Y-91799788D01*
X147480109Y-91799786D01*
X147605048Y-91627820D01*
X147605047Y-91627820D01*
X147605051Y-91627816D01*
X147701557Y-91438412D01*
X147767246Y-91236243D01*
X147800500Y-91026287D01*
X147800500Y-90813713D01*
X147767246Y-90603757D01*
X147701557Y-90401588D01*
X147605051Y-90212184D01*
X147605049Y-90212181D01*
X147605048Y-90212179D01*
X147480109Y-90040213D01*
X147329786Y-89889890D01*
X147157820Y-89764951D01*
X146968414Y-89668444D01*
X146968413Y-89668443D01*
X146968412Y-89668443D01*
X146766243Y-89602754D01*
X146766241Y-89602753D01*
X146766240Y-89602753D01*
X146604957Y-89577208D01*
X146556287Y-89569500D01*
X146343713Y-89569500D01*
X146295042Y-89577208D01*
X146133760Y-89602753D01*
X145931585Y-89668444D01*
X145742179Y-89764951D01*
X145570213Y-89889890D01*
X145419890Y-90040213D01*
X145294951Y-90212179D01*
X145198444Y-90401585D01*
X145132753Y-90603760D01*
X145099500Y-90813713D01*
X119300500Y-90813713D01*
X119300500Y-88741874D01*
X119320185Y-88674835D01*
X119372989Y-88629080D01*
X119442147Y-88619136D01*
X119505703Y-88648161D01*
X119529494Y-88675903D01*
X119539162Y-88691289D01*
X119707266Y-88902085D01*
X119897915Y-89092734D01*
X120108711Y-89260838D01*
X120337003Y-89404284D01*
X120579921Y-89521267D01*
X120771049Y-89588145D01*
X120834397Y-89610312D01*
X120834405Y-89610315D01*
X120834408Y-89610315D01*
X120834409Y-89610316D01*
X121097268Y-89670312D01*
X121365187Y-89700499D01*
X121365188Y-89700500D01*
X121365191Y-89700500D01*
X121634812Y-89700500D01*
X121634812Y-89700499D01*
X121902732Y-89670312D01*
X122165591Y-89610316D01*
X122420079Y-89521267D01*
X122662997Y-89404284D01*
X122891289Y-89260838D01*
X123102085Y-89092734D01*
X123292734Y-88902085D01*
X123460838Y-88691289D01*
X123604284Y-88462997D01*
X123721267Y-88220079D01*
X123810316Y-87965591D01*
X123870312Y-87702732D01*
X123900500Y-87434809D01*
X123900500Y-87165191D01*
X123870312Y-86897268D01*
X123810316Y-86634409D01*
X123721267Y-86379921D01*
X123604284Y-86137003D01*
X123460838Y-85908711D01*
X123292734Y-85697915D01*
X123102085Y-85507266D01*
X122891289Y-85339162D01*
X122891287Y-85339161D01*
X122891285Y-85339159D01*
X122875902Y-85329493D01*
X122829611Y-85277158D01*
X122818964Y-85208105D01*
X122847339Y-85144256D01*
X122905730Y-85105885D01*
X122941875Y-85100500D01*
X154658125Y-85100500D01*
X154725164Y-85120185D01*
G37*
%TD.AperFunction*%
%TD*%
M02*
