%TF.GenerationSoftware,KiCad,Pcbnew,10.0.4*%
%TF.CreationDate,2026-07-29T17:26:35+03:00*%
%TF.ProjectId,OIS_L,4f49535f-4c2e-46b6-9963-61645f706362,rev?*%
%TF.SameCoordinates,Original*%
%TF.FileFunction,Soldermask,Top*%
%TF.FilePolarity,Negative*%
%FSLAX46Y46*%
G04 Gerber Fmt 4.6, Leading zero omitted, Abs format (unit mm)*
G04 Created by KiCad (PCBNEW 10.0.4) date 2026-07-29 17:26:35*
%MOMM*%
%LPD*%
G01*
G04 APERTURE LIST*
G04 Aperture macros list*
%AMRoundRect*
0 Rectangle with rounded corners*
0 $1 Rounding radius*
0 $2 $3 $4 $5 $6 $7 $8 $9 X,Y pos of 4 corners*
0 Add a 4 corners polygon primitive as box body*
4,1,4,$2,$3,$4,$5,$6,$7,$8,$9,$2,$3,0*
0 Add four circle primitives for the rounded corners*
1,1,$1+$1,$2,$3*
1,1,$1+$1,$4,$5*
1,1,$1+$1,$6,$7*
1,1,$1+$1,$8,$9*
0 Add four rect primitives between the rounded corners*
20,1,$1+$1,$2,$3,$4,$5,0*
20,1,$1+$1,$4,$5,$6,$7,0*
20,1,$1+$1,$6,$7,$8,$9,0*
20,1,$1+$1,$8,$9,$2,$3,0*%
G04 Aperture macros list end*
%ADD10C,2.600000*%
%ADD11C,3.800000*%
%ADD12R,1.800000X1.800000*%
%ADD13C,1.800000*%
%ADD14RoundRect,0.250000X-0.475000X0.337500X-0.475000X-0.337500X0.475000X-0.337500X0.475000X0.337500X0*%
%ADD15RoundRect,0.250000X-0.350000X-0.450000X0.350000X-0.450000X0.350000X0.450000X-0.350000X0.450000X0*%
%ADD16RoundRect,0.250000X0.625000X-0.400000X0.625000X0.400000X-0.625000X0.400000X-0.625000X-0.400000X0*%
%ADD17RoundRect,0.112500X-0.187500X-0.112500X0.187500X-0.112500X0.187500X0.112500X-0.187500X0.112500X0*%
%ADD18RoundRect,0.250000X0.450000X-0.350000X0.450000X0.350000X-0.450000X0.350000X-0.450000X-0.350000X0*%
%ADD19C,1.100000*%
%ADD20RoundRect,0.249999X-0.850001X-0.850001X0.850001X-0.850001X0.850001X0.850001X-0.850001X0.850001X0*%
%ADD21C,2.200000*%
%ADD22R,1.700000X1.700000*%
%ADD23C,1.700000*%
%ADD24RoundRect,0.250000X0.350000X0.450000X-0.350000X0.450000X-0.350000X-0.450000X0.350000X-0.450000X0*%
%ADD25RoundRect,0.112500X0.187500X0.112500X-0.187500X0.112500X-0.187500X-0.112500X0.187500X-0.112500X0*%
%ADD26RoundRect,0.250000X0.337500X0.475000X-0.337500X0.475000X-0.337500X-0.475000X0.337500X-0.475000X0*%
%ADD27RoundRect,0.250000X-0.337500X-0.475000X0.337500X-0.475000X0.337500X0.475000X-0.337500X0.475000X0*%
%ADD28RoundRect,0.250000X-0.450000X0.350000X-0.450000X-0.350000X0.450000X-0.350000X0.450000X0.350000X0*%
%ADD29RoundRect,0.150000X-0.150000X0.825000X-0.150000X-0.825000X0.150000X-0.825000X0.150000X0.825000X0*%
%ADD30RoundRect,0.200000X0.200000X-0.750000X0.200000X0.750000X-0.200000X0.750000X-0.200000X-0.750000X0*%
G04 APERTURE END LIST*
D10*
%TO.C,REF\u002A\u002A*%
X156100000Y-131900000D03*
D11*
X156100000Y-131900000D03*
%TD*%
D12*
%TO.C,D1*%
X129010000Y-93400000D03*
D13*
X131550000Y-93400000D03*
%TD*%
D14*
%TO.C,C3*%
X136250000Y-111450000D03*
X136250000Y-113525000D03*
%TD*%
D15*
%TO.C,RD_1*%
X140850000Y-117925000D03*
X142850000Y-117925000D03*
%TD*%
D16*
%TO.C,R_Long2*%
X135720000Y-106230000D03*
X135720000Y-103130000D03*
%TD*%
D17*
%TO.C,D7*%
X140800000Y-129125000D03*
X142900000Y-129125000D03*
%TD*%
D18*
%TO.C,R2*%
X142850000Y-94950000D03*
X142850000Y-92950000D03*
%TD*%
D19*
%TO.C,J1*%
X126250000Y-132700000D03*
X128790000Y-132700000D03*
X131330000Y-132700000D03*
D20*
X126250000Y-130160000D03*
D21*
X128790000Y-130160000D03*
X131330000Y-130160000D03*
%TD*%
D18*
%TO.C,R1*%
X121900000Y-99700000D03*
X121900000Y-97700000D03*
%TD*%
D22*
%TO.C,J3*%
X131450000Y-112000000D03*
D23*
X131450000Y-114540000D03*
X128910000Y-112000000D03*
X128910000Y-114540000D03*
%TD*%
D24*
%TO.C,RC_1*%
X148650000Y-114525000D03*
X146650000Y-114525000D03*
%TD*%
D10*
%TO.C,REF\u002A\u002A*%
X121400000Y-131900000D03*
D11*
X121400000Y-131900000D03*
%TD*%
D15*
%TO.C,RD_2*%
X140850000Y-125325000D03*
X142850000Y-125325000D03*
%TD*%
D17*
%TO.C,D5*%
X140600000Y-114525000D03*
X142700000Y-114525000D03*
%TD*%
D25*
%TO.C,D2*%
X148700000Y-117925000D03*
X146600000Y-117925000D03*
%TD*%
D26*
%TO.C,C2*%
X149860000Y-100470000D03*
X147785000Y-100470000D03*
%TD*%
D17*
%TO.C,D6*%
X140600000Y-121725000D03*
X142700000Y-121725000D03*
%TD*%
D22*
%TO.C,J2*%
X147630000Y-105250000D03*
D23*
X147630000Y-107790000D03*
X145090000Y-105250000D03*
X145090000Y-107790000D03*
X142550000Y-105250000D03*
X142550000Y-107790000D03*
%TD*%
D25*
%TO.C,D4*%
X148700000Y-132725000D03*
X146600000Y-132725000D03*
%TD*%
D14*
%TO.C,C4*%
X151687500Y-94862500D03*
X151687500Y-96937500D03*
%TD*%
D27*
%TO.C,C1*%
X123450000Y-125100000D03*
X125525000Y-125100000D03*
%TD*%
D25*
%TO.C,D3*%
X148700000Y-125325000D03*
X146600000Y-125325000D03*
%TD*%
D16*
%TO.C,R_Long1*%
X131720000Y-106230000D03*
X131720000Y-103130000D03*
%TD*%
D10*
%TO.C,REF\u002A\u002A*%
X121500000Y-87300000D03*
D11*
X121500000Y-87300000D03*
%TD*%
D23*
%TO.C,U2*%
X146450000Y-90920000D03*
D22*
X146450000Y-93460000D03*
D23*
X146450000Y-96000000D03*
%TD*%
D16*
%TO.C,R_Base1*%
X123820000Y-106230000D03*
X123820000Y-103130000D03*
%TD*%
D28*
%TO.C,R3*%
X151550000Y-89800000D03*
X151550000Y-91800000D03*
%TD*%
D15*
%TO.C,RD_3*%
X141050000Y-132725000D03*
X143050000Y-132725000D03*
%TD*%
D16*
%TO.C,R_Mid1*%
X127720000Y-106230000D03*
X127720000Y-103130000D03*
%TD*%
D24*
%TO.C,RC_2*%
X148650000Y-121725000D03*
X146650000Y-121725000D03*
%TD*%
D29*
%TO.C,U1*%
X155920000Y-103520000D03*
X154650000Y-103520000D03*
X153380000Y-103520000D03*
X152110000Y-103520000D03*
X152110000Y-108470000D03*
X153380000Y-108470000D03*
X154650000Y-108470000D03*
X155920000Y-108470000D03*
%TD*%
D10*
%TO.C,REF\u002A\u002A*%
X156100000Y-87300000D03*
D11*
X156100000Y-87300000D03*
%TD*%
D30*
%TO.C,Q1*%
X123630000Y-94880000D03*
X125530000Y-94880000D03*
X124580000Y-91880000D03*
%TD*%
D24*
%TO.C,RC_3*%
X148650000Y-129125000D03*
X146650000Y-129125000D03*
%TD*%
M02*
