G04 #@! TF.GenerationSoftware,KiCad,Pcbnew,10.0.4*
G04 #@! TF.CreationDate,2026-08-04T16:24:38+03:00*
G04 #@! TF.ProjectId,KediSavar,4b656469-5361-4766-9172-2e6b69636164,rev?*
G04 #@! TF.SameCoordinates,Original*
G04 #@! TF.FileFunction,Soldermask,Top*
G04 #@! TF.FilePolarity,Negative*
%FSLAX46Y46*%
G04 Gerber Fmt 4.6, Leading zero omitted, Abs format (unit mm)*
G04 Created by KiCad (PCBNEW 10.0.4) date 2026-08-04 16:24:38*
%MOMM*%
%LPD*%
G01*
G04 APERTURE LIST*
G04 Aperture macros list*
%AMRoundRect*
0 Rectangle with rounded corners*
0 $1 Rounding radius*
0 $2 $3 $4 $5 $6 $7 $8 $9 X,Y pos of 4 corners*
0 Add a 4 corners polygon primitive as box body*
4,1,4,$2,$3,$4,$5,$6,$7,$8,$9,$2,$3,0*
0 Add four circle primitives for the rounded corners*
1,1,$1+$1,$2,$3*
1,1,$1+$1,$4,$5*
1,1,$1+$1,$6,$7*
1,1,$1+$1,$8,$9*
0 Add four rect primitives between the rounded corners*
20,1,$1+$1,$2,$3,$4,$5,0*
20,1,$1+$1,$4,$5,$6,$7,0*
20,1,$1+$1,$6,$7,$8,$9,0*
20,1,$1+$1,$8,$9,$2,$3,0*%
G04 Aperture macros list end*
%ADD10C,1.700000*%
%ADD11R,1.700000X1.700000*%
%ADD12RoundRect,0.300000X0.700000X-0.700000X0.700000X0.700000X-0.700000X0.700000X-0.700000X-0.700000X0*%
%ADD13C,2.000000*%
%ADD14R,1.500000X1.500000*%
%ADD15RoundRect,0.250000X0.350000X0.450000X-0.350000X0.450000X-0.350000X-0.450000X0.350000X-0.450000X0*%
%ADD16RoundRect,0.250000X-0.325000X-0.450000X0.325000X-0.450000X0.325000X0.450000X-0.325000X0.450000X0*%
%ADD17RoundRect,0.250000X0.412500X0.650000X-0.412500X0.650000X-0.412500X-0.650000X0.412500X-0.650000X0*%
%ADD18RoundRect,0.250000X-0.412500X-0.650000X0.412500X-0.650000X0.412500X0.650000X-0.412500X0.650000X0*%
%ADD19R,1.200000X0.800000*%
%ADD20RoundRect,0.250001X-2.324999X1.074999X-2.324999X-1.074999X2.324999X-1.074999X2.324999X1.074999X0*%
%ADD21RoundRect,0.250000X-0.350000X-0.450000X0.350000X-0.450000X0.350000X0.450000X-0.350000X0.450000X0*%
%ADD22RoundRect,0.250000X0.337500X0.475000X-0.337500X0.475000X-0.337500X-0.475000X0.337500X-0.475000X0*%
%ADD23RoundRect,0.162500X0.162500X-0.825000X0.162500X0.825000X-0.162500X0.825000X-0.162500X-0.825000X0*%
%ADD24R,2.900000X5.400000*%
%ADD25RoundRect,0.150000X0.587500X0.150000X-0.587500X0.150000X-0.587500X-0.150000X0.587500X-0.150000X0*%
%ADD26RoundRect,0.250000X-0.337500X-0.475000X0.337500X-0.475000X0.337500X0.475000X-0.337500X0.475000X0*%
%ADD27C,3.600000*%
%ADD28C,6.400000*%
%ADD29RoundRect,0.150000X-0.825000X-0.150000X0.825000X-0.150000X0.825000X0.150000X-0.825000X0.150000X0*%
G04 APERTURE END LIST*
D10*
G04 #@! TO.C,A1*
X136500000Y-54900000D03*
X139040000Y-54900000D03*
D11*
X139040000Y-80300000D03*
X187300000Y-54900000D03*
X184760000Y-54900000D03*
X133960000Y-54900000D03*
X187300000Y-80300000D03*
D10*
X182220000Y-54900000D03*
X182220000Y-80300000D03*
X172060000Y-54900000D03*
X174600000Y-54900000D03*
X166980000Y-80300000D03*
X169520000Y-54900000D03*
X146660000Y-54900000D03*
X149200000Y-54900000D03*
X151740000Y-54900000D03*
X154280000Y-54900000D03*
X156820000Y-54900000D03*
X159360000Y-54900000D03*
X161900000Y-54900000D03*
X164440000Y-54900000D03*
X177140000Y-54900000D03*
X179680000Y-54900000D03*
X159360000Y-80300000D03*
X156820000Y-80300000D03*
X154280000Y-80300000D03*
X151740000Y-80300000D03*
X179680000Y-80300000D03*
X177140000Y-80300000D03*
X174600000Y-80300000D03*
X172060000Y-80300000D03*
X169520000Y-80300000D03*
X161900000Y-80300000D03*
X149200000Y-80300000D03*
X146660000Y-80300000D03*
X184760000Y-80300000D03*
X144120000Y-80300000D03*
X141580000Y-80300000D03*
D11*
X136500000Y-80300000D03*
X133960000Y-80300000D03*
D10*
X164440000Y-80300000D03*
X144120000Y-54900000D03*
X141580000Y-54900000D03*
X166980000Y-54900000D03*
G04 #@! TD*
D12*
G04 #@! TO.C,J2*
X115270000Y-142120000D03*
X115270000Y-137040000D03*
X120350000Y-142120000D03*
X120350000Y-137040000D03*
X125430000Y-142120000D03*
X125430000Y-137040000D03*
X130510000Y-142120000D03*
X130510000Y-137040000D03*
X135590000Y-142120000D03*
X135590000Y-137040000D03*
X140670000Y-142120000D03*
X140670000Y-137040000D03*
X145750000Y-142120000D03*
X145750000Y-137040000D03*
X150830000Y-142120000D03*
X150830000Y-137040000D03*
X155910000Y-142120000D03*
X155910000Y-137040000D03*
X160990000Y-142120000D03*
X160990000Y-137040000D03*
G04 #@! TD*
D13*
G04 #@! TO.C,REF\u002A\u002A*
X197100000Y-136625000D03*
G04 #@! TD*
G04 #@! TO.C,REF\u002A\u002A*
X196475000Y-63000000D03*
G04 #@! TD*
G04 #@! TO.C,REF\u002A\u002A*
X114025000Y-55200000D03*
G04 #@! TD*
D14*
G04 #@! TO.C,GND*
X177600000Y-104725000D03*
G04 #@! TD*
G04 #@! TO.C,uC*
X177600000Y-100900000D03*
G04 #@! TD*
G04 #@! TO.C,PWR*
X177600000Y-97075000D03*
G04 #@! TD*
G04 #@! TO.C,BATT*
X177600000Y-93250000D03*
G04 #@! TD*
D15*
G04 #@! TO.C,R44*
X189050000Y-101050000D03*
X187050000Y-101050000D03*
G04 #@! TD*
G04 #@! TO.C,R43*
X189200000Y-97100000D03*
X187200000Y-97100000D03*
G04 #@! TD*
G04 #@! TO.C,R42*
X189225000Y-93325000D03*
X187225000Y-93325000D03*
G04 #@! TD*
D16*
G04 #@! TO.C,D7*
X183375000Y-101025000D03*
X181325000Y-101025000D03*
G04 #@! TD*
G04 #@! TO.C,D6*
X181325000Y-97175000D03*
X183375000Y-97175000D03*
G04 #@! TD*
G04 #@! TO.C,D5*
X181325000Y-93325000D03*
X183375000Y-93325000D03*
G04 #@! TD*
D17*
G04 #@! TO.C,C18*
X182887500Y-146300000D03*
X179762500Y-146300000D03*
G04 #@! TD*
D18*
G04 #@! TO.C,C14*
X170375000Y-135100000D03*
X173500000Y-135100000D03*
G04 #@! TD*
D19*
G04 #@! TO.C,U3*
X106210000Y-119470000D03*
X106210000Y-122010000D03*
X112210000Y-122010000D03*
X112210000Y-119470000D03*
G04 #@! TD*
D15*
G04 #@! TO.C,R27*
X115140000Y-115670000D03*
X113140000Y-115670000D03*
G04 #@! TD*
D20*
G04 #@! TO.C,D4*
X105500000Y-127150000D03*
X105500000Y-133700000D03*
G04 #@! TD*
D21*
G04 #@! TO.C,R33*
X147400000Y-123600000D03*
X149400000Y-123600000D03*
G04 #@! TD*
G04 #@! TO.C,R17*
X113300000Y-91800000D03*
X115300000Y-91800000D03*
G04 #@! TD*
D17*
G04 #@! TO.C,C16*
X182825000Y-142500000D03*
X179700000Y-142500000D03*
G04 #@! TD*
D22*
G04 #@! TO.C,C7*
X125575000Y-84000000D03*
X127650000Y-84000000D03*
G04 #@! TD*
D18*
G04 #@! TO.C,C15*
X170312500Y-138800000D03*
X173437500Y-138800000D03*
G04 #@! TD*
D20*
G04 #@! TO.C,D2*
X140100000Y-113350000D03*
X140100000Y-119900000D03*
G04 #@! TD*
D21*
G04 #@! TO.C,R40*
X175800000Y-129700000D03*
X177800000Y-129700000D03*
G04 #@! TD*
D23*
G04 #@! TO.C,U5*
X185000000Y-138300000D03*
X186270000Y-138300000D03*
X187540000Y-138300000D03*
X188810000Y-138300000D03*
X188810000Y-133225000D03*
X187540000Y-133225000D03*
X186270000Y-133225000D03*
X185000000Y-133225000D03*
G04 #@! TD*
D15*
G04 #@! TO.C,R13*
X113300000Y-83000000D03*
X115300000Y-83000000D03*
G04 #@! TD*
D21*
G04 #@! TO.C,R31*
X157400000Y-121700000D03*
X159400000Y-121700000D03*
G04 #@! TD*
D15*
G04 #@! TO.C,R2*
X119300000Y-63000000D03*
X121300000Y-63000000D03*
G04 #@! TD*
D24*
G04 #@! TO.C,L1*
X161200000Y-105000000D03*
X171100000Y-105000000D03*
G04 #@! TD*
D15*
G04 #@! TO.C,R37*
X149300000Y-126800000D03*
X147300000Y-126800000D03*
G04 #@! TD*
D22*
G04 #@! TO.C,C6*
X125575000Y-80508333D03*
X127650000Y-80508333D03*
G04 #@! TD*
G04 #@! TO.C,C11*
X177775000Y-124900000D03*
X175700000Y-124900000D03*
G04 #@! TD*
D25*
G04 #@! TO.C,Q1*
X131800000Y-125550000D03*
X131800000Y-123650000D03*
X129925000Y-124600000D03*
G04 #@! TD*
D15*
G04 #@! TO.C,R3*
X113300000Y-66333333D03*
X115300000Y-66333333D03*
G04 #@! TD*
D21*
G04 #@! TO.C,R15*
X115300000Y-88275000D03*
X113300000Y-88275000D03*
G04 #@! TD*
D15*
G04 #@! TO.C,R6*
X119300000Y-69750000D03*
X121300000Y-69750000D03*
G04 #@! TD*
D21*
G04 #@! TO.C,R18*
X137500000Y-92888000D03*
X139500000Y-92888000D03*
G04 #@! TD*
G04 #@! TO.C,R21*
X113300000Y-98850000D03*
X115300000Y-98850000D03*
G04 #@! TD*
D22*
G04 #@! TO.C,C13*
X192830000Y-129272500D03*
X190755000Y-129272500D03*
G04 #@! TD*
D26*
G04 #@! TO.C,C12*
X182417500Y-129272500D03*
X184492500Y-129272500D03*
G04 #@! TD*
D25*
G04 #@! TO.C,Q3*
X155437500Y-125550000D03*
X155437500Y-123650000D03*
X153562500Y-124600000D03*
G04 #@! TD*
D21*
G04 #@! TO.C,R29*
X176100000Y-115900000D03*
X178100000Y-115900000D03*
G04 #@! TD*
D15*
G04 #@! TO.C,R4*
X119300000Y-66375000D03*
X121300000Y-66375000D03*
G04 #@! TD*
D26*
G04 #@! TO.C,C10*
X166225000Y-120300000D03*
X168300000Y-120300000D03*
G04 #@! TD*
D22*
G04 #@! TO.C,C3*
X125575000Y-70033333D03*
X127650000Y-70033333D03*
G04 #@! TD*
D25*
G04 #@! TO.C,Q2*
X143500000Y-125550000D03*
X143500000Y-123650000D03*
X141625000Y-124600000D03*
G04 #@! TD*
D27*
G04 #@! TO.C,REF\u002A\u002A*
X106400000Y-55800000D03*
D28*
X106400000Y-55800000D03*
G04 #@! TD*
D21*
G04 #@! TO.C,R25*
X113300000Y-105900000D03*
X115300000Y-105900000D03*
G04 #@! TD*
G04 #@! TO.C,R16*
X137500000Y-89335000D03*
X139500000Y-89335000D03*
G04 #@! TD*
G04 #@! TO.C,R41*
X179695000Y-135912500D03*
X181695000Y-135912500D03*
G04 #@! TD*
D29*
G04 #@! TO.C,U2*
X146225000Y-89355000D03*
X146225000Y-90625000D03*
X146225000Y-91895000D03*
X146225000Y-93165000D03*
X146225000Y-94435000D03*
X146225000Y-95705000D03*
X146225000Y-96975000D03*
X146225000Y-98245000D03*
X151175000Y-98245000D03*
X151175000Y-96975000D03*
X151175000Y-95705000D03*
X151175000Y-94435000D03*
X151175000Y-93165000D03*
X151175000Y-91895000D03*
X151175000Y-90625000D03*
X151175000Y-89355000D03*
G04 #@! TD*
D22*
G04 #@! TO.C,C1*
X125575000Y-63050000D03*
X127650000Y-63050000D03*
G04 #@! TD*
D15*
G04 #@! TO.C,R9*
X113300000Y-76333333D03*
X115300000Y-76333333D03*
G04 #@! TD*
D21*
G04 #@! TO.C,R35*
X197065000Y-124452500D03*
X199065000Y-124452500D03*
G04 #@! TD*
D15*
G04 #@! TO.C,R10*
X119300000Y-76500000D03*
X121300000Y-76500000D03*
G04 #@! TD*
D21*
G04 #@! TO.C,R19*
X113300000Y-95325000D03*
X115300000Y-95325000D03*
G04 #@! TD*
D15*
G04 #@! TO.C,R11*
X113300000Y-79666667D03*
X115300000Y-79666667D03*
G04 #@! TD*
D21*
G04 #@! TO.C,R28*
X169100000Y-115900000D03*
X171100000Y-115900000D03*
G04 #@! TD*
D15*
G04 #@! TO.C,R14*
X119300000Y-83250000D03*
X121300000Y-83250000D03*
G04 #@! TD*
D29*
G04 #@! TO.C,U1*
X125975000Y-88155000D03*
X125975000Y-89425000D03*
X125975000Y-90695000D03*
X125975000Y-91965000D03*
X125975000Y-93235000D03*
X125975000Y-94505000D03*
X125975000Y-95775000D03*
X125975000Y-97045000D03*
X121025000Y-97045000D03*
X121025000Y-95775000D03*
X121025000Y-94505000D03*
X121025000Y-93235000D03*
X121025000Y-91965000D03*
X121025000Y-90695000D03*
X121025000Y-89425000D03*
X121025000Y-88155000D03*
G04 #@! TD*
D15*
G04 #@! TO.C,R30*
X175000000Y-120400000D03*
X173000000Y-120400000D03*
G04 #@! TD*
G04 #@! TO.C,R39*
X199065000Y-129312500D03*
X197065000Y-129312500D03*
G04 #@! TD*
G04 #@! TO.C,R8*
X119300000Y-73125000D03*
X121300000Y-73125000D03*
G04 #@! TD*
G04 #@! TO.C,R7*
X113300000Y-73000000D03*
X115300000Y-73000000D03*
G04 #@! TD*
G04 #@! TO.C,R12*
X119300000Y-79875000D03*
X121300000Y-79875000D03*
G04 #@! TD*
D22*
G04 #@! TO.C,C5*
X125575000Y-77016667D03*
X127650000Y-77016667D03*
G04 #@! TD*
G04 #@! TO.C,C2*
X125575000Y-66541667D03*
X127650000Y-66541667D03*
G04 #@! TD*
D21*
G04 #@! TO.C,R22*
X137500000Y-99994000D03*
X139500000Y-99994000D03*
G04 #@! TD*
G04 #@! TO.C,R34*
X190795000Y-124422500D03*
X192795000Y-124422500D03*
G04 #@! TD*
D22*
G04 #@! TO.C,C4*
X125575000Y-73525000D03*
X127650000Y-73525000D03*
G04 #@! TD*
D20*
G04 #@! TO.C,D3*
X152300000Y-113250000D03*
X152300000Y-119800000D03*
G04 #@! TD*
D15*
G04 #@! TO.C,R36*
X137300000Y-126800000D03*
X135300000Y-126800000D03*
G04 #@! TD*
D27*
G04 #@! TO.C,REF\u002A\u002A*
X106300000Y-144200000D03*
D28*
X106300000Y-144200000D03*
G04 #@! TD*
D21*
G04 #@! TO.C,R38*
X158000000Y-126900000D03*
X160000000Y-126900000D03*
G04 #@! TD*
D23*
G04 #@! TO.C,U4*
X168595000Y-130137500D03*
X169865000Y-130137500D03*
X171135000Y-130137500D03*
X172405000Y-130137500D03*
X172405000Y-125062500D03*
X171135000Y-125062500D03*
X169865000Y-125062500D03*
X168595000Y-125062500D03*
G04 #@! TD*
D20*
G04 #@! TO.C,D1*
X128100000Y-113325000D03*
X128100000Y-119875000D03*
G04 #@! TD*
D11*
G04 #@! TO.C,J1*
X105280000Y-63000000D03*
D10*
X107820000Y-63000000D03*
X105280000Y-65540000D03*
X107820000Y-65540000D03*
X105280000Y-68080000D03*
X107820000Y-68080000D03*
X105280000Y-70620000D03*
X107820000Y-70620000D03*
X105280000Y-73160000D03*
X107820000Y-73160000D03*
X105280000Y-75700000D03*
X107820000Y-75700000D03*
X105280000Y-78240000D03*
X107820000Y-78240000D03*
X105280000Y-80780000D03*
X107820000Y-80780000D03*
X105280000Y-83320000D03*
X107820000Y-83320000D03*
X105280000Y-85860000D03*
X107820000Y-85860000D03*
X105280000Y-88400000D03*
X107820000Y-88400000D03*
X105280000Y-90940000D03*
X107820000Y-90940000D03*
X105280000Y-93480000D03*
X107820000Y-93480000D03*
X105280000Y-96020000D03*
X107820000Y-96020000D03*
X105280000Y-98560000D03*
X107820000Y-98560000D03*
X105280000Y-101100000D03*
X107820000Y-101100000D03*
X105280000Y-103640000D03*
X107820000Y-103640000D03*
X105280000Y-106180000D03*
X107820000Y-106180000D03*
X105280000Y-108720000D03*
X107820000Y-108720000D03*
X105280000Y-111260000D03*
X107820000Y-111260000D03*
G04 #@! TD*
D17*
G04 #@! TO.C,C8*
X189582500Y-85650000D03*
X186457500Y-85650000D03*
G04 #@! TD*
D21*
G04 #@! TO.C,R20*
X137500000Y-96441000D03*
X139500000Y-96441000D03*
G04 #@! TD*
G04 #@! TO.C,R24*
X137500000Y-103547000D03*
X139500000Y-103547000D03*
G04 #@! TD*
G04 #@! TO.C,R26*
X137500000Y-107100000D03*
X139500000Y-107100000D03*
G04 #@! TD*
D15*
G04 #@! TO.C,R5*
X113300000Y-69666667D03*
X115300000Y-69666667D03*
G04 #@! TD*
D27*
G04 #@! TO.C,REF\u002A\u002A*
X194700000Y-55800000D03*
D28*
X194700000Y-55800000D03*
G04 #@! TD*
D27*
G04 #@! TO.C,REF\u002A\u002A*
X194700000Y-144200000D03*
D28*
X194700000Y-144200000D03*
G04 #@! TD*
D21*
G04 #@! TO.C,R23*
X113300000Y-102375000D03*
X115300000Y-102375000D03*
G04 #@! TD*
D26*
G04 #@! TO.C,C19*
X185387500Y-148192500D03*
X187462500Y-148192500D03*
G04 #@! TD*
D15*
G04 #@! TO.C,R1*
X113300000Y-63000000D03*
X115300000Y-63000000D03*
G04 #@! TD*
D24*
G04 #@! TO.C,L2*
X181885000Y-115012500D03*
X191785000Y-115012500D03*
G04 #@! TD*
D21*
G04 #@! TO.C,R32*
X135300000Y-123400000D03*
X137300000Y-123400000D03*
G04 #@! TD*
D18*
G04 #@! TO.C,C9*
X168675000Y-95500000D03*
X171800000Y-95500000D03*
G04 #@! TD*
D26*
G04 #@! TO.C,C17*
X168800000Y-142800000D03*
X170875000Y-142800000D03*
G04 #@! TD*
M02*
