M48
; DRILL file KiCad 10.0.4 date 2026-08-04T16:24:40
; FORMAT={-:-/ absolute / metric / decimal}
; #@! TF.CreationDate,2026-08-04T16:24:40+03:00
; #@! TF.GenerationSoftware,Kicad,Pcbnew,10.0.4
; #@! TF.FileFunction,Plated,1,2,PTH
FMAT,2
METRIC
; #@! TA.AperFunction,Plated,PTH,ViaDrill
T1C0.300
; #@! TA.AperFunction,Plated,PTH,ViaDrill
T2C0.600
; #@! TA.AperFunction,Plated,PTH,ComponentDrill
T3C1.000
; #@! TA.AperFunction,Plated,PTH,ComponentDrill
T4C1.100
; #@! TA.AperFunction,Plated,PTH,ComponentDrill
T5C3.200
%
G90
G05
T1
X117.3Y-63.0
X117.3Y-66.325
X117.3Y-69.65
X117.3Y-72.95
X117.3Y-76.325
X117.3Y-79.675
X117.3Y-82.95
X121.01Y-57.32
X123.5Y-85.05
X123.55Y-78.4
X123.55Y-81.825
X123.6Y-71.575
X123.6Y-75.0
X123.625Y-68.125
X123.65Y-64.675
X129.94Y-62.31
X129.94Y-81.38
X132.2Y-86.6
X139.39Y-62.31
X156.6Y-76.2
X172.1Y-66.2
X174.6Y-65.3
X177.1Y-64.0
X177.103Y-83.925
X177.787Y-84.65
X178.439Y-85.341
T2
X110.3Y-125.9
X115.3Y-125.8
X117.51Y-119.64
X120.4Y-125.8
X123.43Y-110.06
X125.4Y-125.7
X133.6Y-113.3
X139.8Y-126.8
X145.5Y-113.3
X151.3Y-126.8
X155.19Y-127.85
X158.2Y-113.2
X163.0Y-127.0
X165.04Y-117.57
X168.0Y-133.9
X168.4Y-144.9
X172.5Y-90.75
X173.0Y-117.9
X176.7Y-138.5
X177.03Y-120.4
X177.8Y-146.3
X181.015Y-131.632
X183.25Y-139.35
X185.335Y-145.452
X186.275Y-129.213
X191.645Y-132.942
X191.685Y-127.062
X192.22Y-98.4
X194.15Y-98.5
X195.235Y-124.422
X195.235Y-131.373
T3
X105.28Y-63.0
X105.28Y-65.54
X105.28Y-68.08
X105.28Y-70.62
X105.28Y-73.16
X105.28Y-75.7
X105.28Y-78.24
X105.28Y-80.78
X105.28Y-83.32
X105.28Y-85.86
X105.28Y-88.4
X105.28Y-90.94
X105.28Y-93.48
X105.28Y-96.02
X105.28Y-98.56
X105.28Y-101.1
X105.28Y-103.64
X105.28Y-106.18
X105.28Y-108.72
X105.28Y-111.26
X107.82Y-63.0
X107.82Y-65.54
X107.82Y-68.08
X107.82Y-70.62
X107.82Y-73.16
X107.82Y-75.7
X107.82Y-78.24
X107.82Y-80.78
X107.82Y-83.32
X107.82Y-85.86
X107.82Y-88.4
X107.82Y-90.94
X107.82Y-93.48
X107.82Y-96.02
X107.82Y-98.56
X107.82Y-101.1
X107.82Y-103.64
X107.82Y-106.18
X107.82Y-108.72
X107.82Y-111.26
X133.96Y-54.9
X133.96Y-80.3
X136.5Y-54.9
X136.5Y-80.3
X139.04Y-54.9
X139.04Y-80.3
X141.58Y-54.9
X141.58Y-80.3
X144.12Y-54.9
X144.12Y-80.3
X146.66Y-54.9
X146.66Y-80.3
X149.2Y-54.9
X149.2Y-80.3
X151.74Y-54.9
X151.74Y-80.3
X154.28Y-54.9
X154.28Y-80.3
X156.82Y-54.9
X156.82Y-80.3
X159.36Y-54.9
X159.36Y-80.3
X161.9Y-54.9
X161.9Y-80.3
X164.44Y-54.9
X164.44Y-80.3
X166.98Y-54.9
X166.98Y-80.3
X169.52Y-54.9
X169.52Y-80.3
X172.06Y-54.9
X172.06Y-80.3
X174.6Y-54.9
X174.6Y-80.3
X177.14Y-54.9
X177.14Y-80.3
X179.68Y-54.9
X179.68Y-80.3
X182.22Y-54.9
X182.22Y-80.3
X184.76Y-54.9
X184.76Y-80.3
X187.3Y-54.9
X187.3Y-80.3
T4
X115.27Y-137.04
X115.27Y-142.12
X120.35Y-137.04
X120.35Y-142.12
X125.43Y-137.04
X125.43Y-142.12
X130.51Y-137.04
X130.51Y-142.12
X135.59Y-137.04
X135.59Y-142.12
X140.67Y-137.04
X140.67Y-142.12
X145.75Y-137.04
X145.75Y-142.12
X150.83Y-137.04
X150.83Y-142.12
X155.91Y-137.04
X155.91Y-142.12
X160.99Y-137.04
X160.99Y-142.12
T5
X106.3Y-144.2
X106.4Y-55.8
X194.7Y-55.8
X194.7Y-144.2
M30
