G04 #@! TF.GenerationSoftware,KiCad,Pcbnew,10.0.4*
G04 #@! TF.CreationDate,2026-08-04T16:24:38+03:00*
G04 #@! TF.ProjectId,KediSavar,4b656469-5361-4766-9172-2e6b69636164,rev?*
G04 #@! TF.SameCoordinates,Original*
G04 #@! TF.FileFunction,Soldermask,Bot*
G04 #@! TF.FilePolarity,Negative*
%FSLAX46Y46*%
G04 Gerber Fmt 4.6, Leading zero omitted, Abs format (unit mm)*
G04 Created by KiCad (PCBNEW 10.0.4) date 2026-08-04 16:24:38*
%MOMM*%
%LPD*%
G01*
G04 APERTURE LIST*
G04 Aperture macros list*
%AMRoundRect*
0 Rectangle with rounded corners*
0 $1 Rounding radius*
0 $2 $3 $4 $5 $6 $7 $8 $9 X,Y pos of 4 corners*
0 Add a 4 corners polygon primitive as box body*
4,1,4,$2,$3,$4,$5,$6,$7,$8,$9,$2,$3,0*
0 Add four circle primitives for the rounded corners*
1,1,$1+$1,$2,$3*
1,1,$1+$1,$4,$5*
1,1,$1+$1,$6,$7*
1,1,$1+$1,$8,$9*
0 Add four rect primitives between the rounded corners*
20,1,$1+$1,$2,$3,$4,$5,0*
20,1,$1+$1,$4,$5,$6,$7,0*
20,1,$1+$1,$6,$7,$8,$9,0*
20,1,$1+$1,$8,$9,$2,$3,0*%
G04 Aperture macros list end*
%ADD10C,1.700000*%
%ADD11R,1.700000X1.700000*%
%ADD12RoundRect,0.300000X0.700000X-0.700000X0.700000X0.700000X-0.700000X0.700000X-0.700000X-0.700000X0*%
%ADD13C,2.000000*%
%ADD14C,3.600000*%
%ADD15C,6.400000*%
G04 APERTURE END LIST*
D10*
G04 #@! TO.C,A1*
X136500000Y-54900000D03*
X139040000Y-54900000D03*
D11*
X139040000Y-80300000D03*
X187300000Y-54900000D03*
X184760000Y-54900000D03*
X133960000Y-54900000D03*
X187300000Y-80300000D03*
D10*
X182220000Y-54900000D03*
X182220000Y-80300000D03*
X172060000Y-54900000D03*
X174600000Y-54900000D03*
X166980000Y-80300000D03*
X169520000Y-54900000D03*
X146660000Y-54900000D03*
X149200000Y-54900000D03*
X151740000Y-54900000D03*
X154280000Y-54900000D03*
X156820000Y-54900000D03*
X159360000Y-54900000D03*
X161900000Y-54900000D03*
X164440000Y-54900000D03*
X177140000Y-54900000D03*
X179680000Y-54900000D03*
X159360000Y-80300000D03*
X156820000Y-80300000D03*
X154280000Y-80300000D03*
X151740000Y-80300000D03*
X179680000Y-80300000D03*
X177140000Y-80300000D03*
X174600000Y-80300000D03*
X172060000Y-80300000D03*
X169520000Y-80300000D03*
X161900000Y-80300000D03*
X149200000Y-80300000D03*
X146660000Y-80300000D03*
X184760000Y-80300000D03*
X144120000Y-80300000D03*
X141580000Y-80300000D03*
D11*
X136500000Y-80300000D03*
X133960000Y-80300000D03*
D10*
X164440000Y-80300000D03*
X144120000Y-54900000D03*
X141580000Y-54900000D03*
X166980000Y-54900000D03*
G04 #@! TD*
D12*
G04 #@! TO.C,J2*
X115270000Y-142120000D03*
X115270000Y-137040000D03*
X120350000Y-142120000D03*
X120350000Y-137040000D03*
X125430000Y-142120000D03*
X125430000Y-137040000D03*
X130510000Y-142120000D03*
X130510000Y-137040000D03*
X135590000Y-142120000D03*
X135590000Y-137040000D03*
X140670000Y-142120000D03*
X140670000Y-137040000D03*
X145750000Y-142120000D03*
X145750000Y-137040000D03*
X150830000Y-142120000D03*
X150830000Y-137040000D03*
X155910000Y-142120000D03*
X155910000Y-137040000D03*
X160990000Y-142120000D03*
X160990000Y-137040000D03*
G04 #@! TD*
D13*
G04 #@! TO.C,REF\u002A\u002A*
X161300000Y-65500000D03*
G04 #@! TD*
G04 #@! TO.C,REF\u002A\u002A*
X194450000Y-137275000D03*
G04 #@! TD*
G04 #@! TO.C,REF\u002A\u002A*
X105875000Y-134675000D03*
G04 #@! TD*
D14*
G04 #@! TO.C,REF\u002A\u002A*
X106400000Y-55800000D03*
D15*
X106400000Y-55800000D03*
G04 #@! TD*
D14*
G04 #@! TO.C,REF\u002A\u002A*
X106300000Y-144200000D03*
D15*
X106300000Y-144200000D03*
G04 #@! TD*
D11*
G04 #@! TO.C,J1*
X105280000Y-63000000D03*
D10*
X107820000Y-63000000D03*
X105280000Y-65540000D03*
X107820000Y-65540000D03*
X105280000Y-68080000D03*
X107820000Y-68080000D03*
X105280000Y-70620000D03*
X107820000Y-70620000D03*
X105280000Y-73160000D03*
X107820000Y-73160000D03*
X105280000Y-75700000D03*
X107820000Y-75700000D03*
X105280000Y-78240000D03*
X107820000Y-78240000D03*
X105280000Y-80780000D03*
X107820000Y-80780000D03*
X105280000Y-83320000D03*
X107820000Y-83320000D03*
X105280000Y-85860000D03*
X107820000Y-85860000D03*
X105280000Y-88400000D03*
X107820000Y-88400000D03*
X105280000Y-90940000D03*
X107820000Y-90940000D03*
X105280000Y-93480000D03*
X107820000Y-93480000D03*
X105280000Y-96020000D03*
X107820000Y-96020000D03*
X105280000Y-98560000D03*
X107820000Y-98560000D03*
X105280000Y-101100000D03*
X107820000Y-101100000D03*
X105280000Y-103640000D03*
X107820000Y-103640000D03*
X105280000Y-106180000D03*
X107820000Y-106180000D03*
X105280000Y-108720000D03*
X107820000Y-108720000D03*
X105280000Y-111260000D03*
X107820000Y-111260000D03*
G04 #@! TD*
D14*
G04 #@! TO.C,REF\u002A\u002A*
X194700000Y-55800000D03*
D15*
X194700000Y-55800000D03*
G04 #@! TD*
D14*
G04 #@! TO.C,REF\u002A\u002A*
X194700000Y-144200000D03*
D15*
X194700000Y-144200000D03*
G04 #@! TD*
M02*
