%TF.GenerationSoftware,KiCad,Pcbnew,10.0.4*%
%TF.CreationDate,2026-07-29T17:26:31+03:00*%
%TF.ProjectId,OIS_L,4f49535f-4c2e-46b6-9963-61645f706362,rev?*%
%TF.SameCoordinates,Original*%
%TF.FileFunction,Drillmap*%
%TF.FilePolarity,Positive*%
%FSLAX45Y45*%
G04 Gerber Fmt 4.5, Leading zero omitted, Abs format (unit mm)*
G04 Created by KiCad (PCBNEW 10.0.4) date 2026-07-29 17:26:31*
%MOMM*%
%LPD*%
G01*
G04 APERTURE LIST*
%ADD10C,0.050000*%
%ADD11C,0.200000*%
%ADD12C,0.110000*%
G04 APERTURE END LIST*
D10*
X11880000Y-8460000D02*
X15880000Y-8460000D01*
X15880000Y-13460000D01*
X11880000Y-13460000D01*
X11880000Y-8460000D01*
D11*
D12*
X12570000Y-13215000D02*
X12680000Y-13325000D01*
X12680000Y-13215000D02*
X12570000Y-13325000D01*
X12824000Y-13215000D02*
X12934000Y-13325000D01*
X12934000Y-13215000D02*
X12824000Y-13325000D01*
X13078000Y-13215000D02*
X13188000Y-13325000D01*
X13188000Y-13215000D02*
X13078000Y-13325000D01*
D11*
X12138277Y-13773984D02*
X12138277Y-13573984D01*
X12138277Y-13573984D02*
X12185896Y-13573984D01*
X12185896Y-13573984D02*
X12214467Y-13583508D01*
X12214467Y-13583508D02*
X12233515Y-13602555D01*
X12233515Y-13602555D02*
X12243039Y-13621603D01*
X12243039Y-13621603D02*
X12252562Y-13659698D01*
X12252562Y-13659698D02*
X12252562Y-13688269D01*
X12252562Y-13688269D02*
X12243039Y-13726365D01*
X12243039Y-13726365D02*
X12233515Y-13745412D01*
X12233515Y-13745412D02*
X12214467Y-13764460D01*
X12214467Y-13764460D02*
X12185896Y-13773984D01*
X12185896Y-13773984D02*
X12138277Y-13773984D01*
X12338277Y-13773984D02*
X12338277Y-13640650D01*
X12338277Y-13678746D02*
X12347801Y-13659698D01*
X12347801Y-13659698D02*
X12357324Y-13650174D01*
X12357324Y-13650174D02*
X12376372Y-13640650D01*
X12376372Y-13640650D02*
X12395420Y-13640650D01*
X12462086Y-13773984D02*
X12462086Y-13640650D01*
X12462086Y-13573984D02*
X12452562Y-13583508D01*
X12452562Y-13583508D02*
X12462086Y-13593031D01*
X12462086Y-13593031D02*
X12471610Y-13583508D01*
X12471610Y-13583508D02*
X12462086Y-13573984D01*
X12462086Y-13573984D02*
X12462086Y-13593031D01*
X12585896Y-13773984D02*
X12566848Y-13764460D01*
X12566848Y-13764460D02*
X12557324Y-13745412D01*
X12557324Y-13745412D02*
X12557324Y-13573984D01*
X12690658Y-13773984D02*
X12671610Y-13764460D01*
X12671610Y-13764460D02*
X12662086Y-13745412D01*
X12662086Y-13745412D02*
X12662086Y-13573984D01*
X12919229Y-13773984D02*
X12919229Y-13573984D01*
X12919229Y-13573984D02*
X12985896Y-13716841D01*
X12985896Y-13716841D02*
X13052562Y-13573984D01*
X13052562Y-13573984D02*
X13052562Y-13773984D01*
X13233515Y-13773984D02*
X13233515Y-13669222D01*
X13233515Y-13669222D02*
X13223991Y-13650174D01*
X13223991Y-13650174D02*
X13204943Y-13640650D01*
X13204943Y-13640650D02*
X13166848Y-13640650D01*
X13166848Y-13640650D02*
X13147801Y-13650174D01*
X13233515Y-13764460D02*
X13214467Y-13773984D01*
X13214467Y-13773984D02*
X13166848Y-13773984D01*
X13166848Y-13773984D02*
X13147801Y-13764460D01*
X13147801Y-13764460D02*
X13138277Y-13745412D01*
X13138277Y-13745412D02*
X13138277Y-13726365D01*
X13138277Y-13726365D02*
X13147801Y-13707317D01*
X13147801Y-13707317D02*
X13166848Y-13697793D01*
X13166848Y-13697793D02*
X13214467Y-13697793D01*
X13214467Y-13697793D02*
X13233515Y-13688269D01*
X13328753Y-13640650D02*
X13328753Y-13840650D01*
X13328753Y-13650174D02*
X13347801Y-13640650D01*
X13347801Y-13640650D02*
X13385896Y-13640650D01*
X13385896Y-13640650D02*
X13404943Y-13650174D01*
X13404943Y-13650174D02*
X13414467Y-13659698D01*
X13414467Y-13659698D02*
X13423991Y-13678746D01*
X13423991Y-13678746D02*
X13423991Y-13735888D01*
X13423991Y-13735888D02*
X13414467Y-13754936D01*
X13414467Y-13754936D02*
X13404943Y-13764460D01*
X13404943Y-13764460D02*
X13385896Y-13773984D01*
X13385896Y-13773984D02*
X13347801Y-13773984D01*
X13347801Y-13773984D02*
X13328753Y-13764460D01*
X13509705Y-13754936D02*
X13519229Y-13764460D01*
X13519229Y-13764460D02*
X13509705Y-13773984D01*
X13509705Y-13773984D02*
X13500182Y-13764460D01*
X13500182Y-13764460D02*
X13509705Y-13754936D01*
X13509705Y-13754936D02*
X13509705Y-13773984D01*
X13509705Y-13650174D02*
X13519229Y-13659698D01*
X13519229Y-13659698D02*
X13509705Y-13669222D01*
X13509705Y-13669222D02*
X13500182Y-13659698D01*
X13500182Y-13659698D02*
X13509705Y-13650174D01*
X13509705Y-13650174D02*
X13509705Y-13669222D01*
D12*
X11767500Y-14047500D02*
X11877500Y-14157500D01*
X11877500Y-14047500D02*
X11767500Y-14157500D01*
D11*
X12243039Y-14193984D02*
X12128753Y-14193984D01*
X12185896Y-14193984D02*
X12185896Y-13993984D01*
X12185896Y-13993984D02*
X12166848Y-14022555D01*
X12166848Y-14022555D02*
X12147801Y-14041603D01*
X12147801Y-14041603D02*
X12128753Y-14051127D01*
X12328753Y-14174936D02*
X12338277Y-14184460D01*
X12338277Y-14184460D02*
X12328753Y-14193984D01*
X12328753Y-14193984D02*
X12319229Y-14184460D01*
X12319229Y-14184460D02*
X12328753Y-14174936D01*
X12328753Y-14174936D02*
X12328753Y-14193984D01*
X12528753Y-14193984D02*
X12414467Y-14193984D01*
X12471610Y-14193984D02*
X12471610Y-13993984D01*
X12471610Y-13993984D02*
X12452562Y-14022555D01*
X12452562Y-14022555D02*
X12433515Y-14041603D01*
X12433515Y-14041603D02*
X12414467Y-14051127D01*
X12652562Y-13993984D02*
X12671610Y-13993984D01*
X12671610Y-13993984D02*
X12690658Y-14003508D01*
X12690658Y-14003508D02*
X12700182Y-14013031D01*
X12700182Y-14013031D02*
X12709705Y-14032079D01*
X12709705Y-14032079D02*
X12719229Y-14070174D01*
X12719229Y-14070174D02*
X12719229Y-14117793D01*
X12719229Y-14117793D02*
X12709705Y-14155888D01*
X12709705Y-14155888D02*
X12700182Y-14174936D01*
X12700182Y-14174936D02*
X12690658Y-14184460D01*
X12690658Y-14184460D02*
X12671610Y-14193984D01*
X12671610Y-14193984D02*
X12652562Y-14193984D01*
X12652562Y-14193984D02*
X12633515Y-14184460D01*
X12633515Y-14184460D02*
X12623991Y-14174936D01*
X12623991Y-14174936D02*
X12614467Y-14155888D01*
X12614467Y-14155888D02*
X12604943Y-14117793D01*
X12604943Y-14117793D02*
X12604943Y-14070174D01*
X12604943Y-14070174D02*
X12614467Y-14032079D01*
X12614467Y-14032079D02*
X12623991Y-14013031D01*
X12623991Y-14013031D02*
X12633515Y-14003508D01*
X12633515Y-14003508D02*
X12652562Y-13993984D01*
X12843039Y-13993984D02*
X12862086Y-13993984D01*
X12862086Y-13993984D02*
X12881134Y-14003508D01*
X12881134Y-14003508D02*
X12890658Y-14013031D01*
X12890658Y-14013031D02*
X12900182Y-14032079D01*
X12900182Y-14032079D02*
X12909705Y-14070174D01*
X12909705Y-14070174D02*
X12909705Y-14117793D01*
X12909705Y-14117793D02*
X12900182Y-14155888D01*
X12900182Y-14155888D02*
X12890658Y-14174936D01*
X12890658Y-14174936D02*
X12881134Y-14184460D01*
X12881134Y-14184460D02*
X12862086Y-14193984D01*
X12862086Y-14193984D02*
X12843039Y-14193984D01*
X12843039Y-14193984D02*
X12823991Y-14184460D01*
X12823991Y-14184460D02*
X12814467Y-14174936D01*
X12814467Y-14174936D02*
X12804943Y-14155888D01*
X12804943Y-14155888D02*
X12795420Y-14117793D01*
X12795420Y-14117793D02*
X12795420Y-14070174D01*
X12795420Y-14070174D02*
X12804943Y-14032079D01*
X12804943Y-14032079D02*
X12814467Y-14013031D01*
X12814467Y-14013031D02*
X12823991Y-14003508D01*
X12823991Y-14003508D02*
X12843039Y-13993984D01*
X12995420Y-14193984D02*
X12995420Y-14060650D01*
X12995420Y-14079698D02*
X13004943Y-14070174D01*
X13004943Y-14070174D02*
X13023991Y-14060650D01*
X13023991Y-14060650D02*
X13052563Y-14060650D01*
X13052563Y-14060650D02*
X13071610Y-14070174D01*
X13071610Y-14070174D02*
X13081134Y-14089222D01*
X13081134Y-14089222D02*
X13081134Y-14193984D01*
X13081134Y-14089222D02*
X13090658Y-14070174D01*
X13090658Y-14070174D02*
X13109705Y-14060650D01*
X13109705Y-14060650D02*
X13138277Y-14060650D01*
X13138277Y-14060650D02*
X13157324Y-14070174D01*
X13157324Y-14070174D02*
X13166848Y-14089222D01*
X13166848Y-14089222D02*
X13166848Y-14193984D01*
X13262086Y-14193984D02*
X13262086Y-14060650D01*
X13262086Y-14079698D02*
X13271610Y-14070174D01*
X13271610Y-14070174D02*
X13290658Y-14060650D01*
X13290658Y-14060650D02*
X13319229Y-14060650D01*
X13319229Y-14060650D02*
X13338277Y-14070174D01*
X13338277Y-14070174D02*
X13347801Y-14089222D01*
X13347801Y-14089222D02*
X13347801Y-14193984D01*
X13347801Y-14089222D02*
X13357324Y-14070174D01*
X13357324Y-14070174D02*
X13376372Y-14060650D01*
X13376372Y-14060650D02*
X13404943Y-14060650D01*
X13404943Y-14060650D02*
X13423991Y-14070174D01*
X13423991Y-14070174D02*
X13433515Y-14089222D01*
X13433515Y-14089222D02*
X13433515Y-14193984D01*
X13823991Y-13984460D02*
X13652563Y-14241603D01*
X14081134Y-13993984D02*
X14100182Y-13993984D01*
X14100182Y-13993984D02*
X14119229Y-14003508D01*
X14119229Y-14003508D02*
X14128753Y-14013031D01*
X14128753Y-14013031D02*
X14138277Y-14032079D01*
X14138277Y-14032079D02*
X14147801Y-14070174D01*
X14147801Y-14070174D02*
X14147801Y-14117793D01*
X14147801Y-14117793D02*
X14138277Y-14155888D01*
X14138277Y-14155888D02*
X14128753Y-14174936D01*
X14128753Y-14174936D02*
X14119229Y-14184460D01*
X14119229Y-14184460D02*
X14100182Y-14193984D01*
X14100182Y-14193984D02*
X14081134Y-14193984D01*
X14081134Y-14193984D02*
X14062086Y-14184460D01*
X14062086Y-14184460D02*
X14052563Y-14174936D01*
X14052563Y-14174936D02*
X14043039Y-14155888D01*
X14043039Y-14155888D02*
X14033515Y-14117793D01*
X14033515Y-14117793D02*
X14033515Y-14070174D01*
X14033515Y-14070174D02*
X14043039Y-14032079D01*
X14043039Y-14032079D02*
X14052563Y-14013031D01*
X14052563Y-14013031D02*
X14062086Y-14003508D01*
X14062086Y-14003508D02*
X14081134Y-13993984D01*
X14233515Y-14174936D02*
X14243039Y-14184460D01*
X14243039Y-14184460D02*
X14233515Y-14193984D01*
X14233515Y-14193984D02*
X14223991Y-14184460D01*
X14223991Y-14184460D02*
X14233515Y-14174936D01*
X14233515Y-14174936D02*
X14233515Y-14193984D01*
X14366848Y-13993984D02*
X14385896Y-13993984D01*
X14385896Y-13993984D02*
X14404944Y-14003508D01*
X14404944Y-14003508D02*
X14414467Y-14013031D01*
X14414467Y-14013031D02*
X14423991Y-14032079D01*
X14423991Y-14032079D02*
X14433515Y-14070174D01*
X14433515Y-14070174D02*
X14433515Y-14117793D01*
X14433515Y-14117793D02*
X14423991Y-14155888D01*
X14423991Y-14155888D02*
X14414467Y-14174936D01*
X14414467Y-14174936D02*
X14404944Y-14184460D01*
X14404944Y-14184460D02*
X14385896Y-14193984D01*
X14385896Y-14193984D02*
X14366848Y-14193984D01*
X14366848Y-14193984D02*
X14347801Y-14184460D01*
X14347801Y-14184460D02*
X14338277Y-14174936D01*
X14338277Y-14174936D02*
X14328753Y-14155888D01*
X14328753Y-14155888D02*
X14319229Y-14117793D01*
X14319229Y-14117793D02*
X14319229Y-14070174D01*
X14319229Y-14070174D02*
X14328753Y-14032079D01*
X14328753Y-14032079D02*
X14338277Y-14013031D01*
X14338277Y-14013031D02*
X14347801Y-14003508D01*
X14347801Y-14003508D02*
X14366848Y-13993984D01*
X14604944Y-14060650D02*
X14604944Y-14193984D01*
X14557325Y-13984460D02*
X14509706Y-14127317D01*
X14509706Y-14127317D02*
X14633515Y-14127317D01*
X14690658Y-13993984D02*
X14814467Y-13993984D01*
X14814467Y-13993984D02*
X14747801Y-14070174D01*
X14747801Y-14070174D02*
X14776372Y-14070174D01*
X14776372Y-14070174D02*
X14795420Y-14079698D01*
X14795420Y-14079698D02*
X14804944Y-14089222D01*
X14804944Y-14089222D02*
X14814467Y-14108269D01*
X14814467Y-14108269D02*
X14814467Y-14155888D01*
X14814467Y-14155888D02*
X14804944Y-14174936D01*
X14804944Y-14174936D02*
X14795420Y-14184460D01*
X14795420Y-14184460D02*
X14776372Y-14193984D01*
X14776372Y-14193984D02*
X14719229Y-14193984D01*
X14719229Y-14193984D02*
X14700182Y-14184460D01*
X14700182Y-14184460D02*
X14690658Y-14174936D01*
X14881134Y-13993984D02*
X15004944Y-13993984D01*
X15004944Y-13993984D02*
X14938277Y-14070174D01*
X14938277Y-14070174D02*
X14966848Y-14070174D01*
X14966848Y-14070174D02*
X14985896Y-14079698D01*
X14985896Y-14079698D02*
X14995420Y-14089222D01*
X14995420Y-14089222D02*
X15004944Y-14108269D01*
X15004944Y-14108269D02*
X15004944Y-14155888D01*
X15004944Y-14155888D02*
X14995420Y-14174936D01*
X14995420Y-14174936D02*
X14985896Y-14184460D01*
X14985896Y-14184460D02*
X14966848Y-14193984D01*
X14966848Y-14193984D02*
X14909706Y-14193984D01*
X14909706Y-14193984D02*
X14890658Y-14184460D01*
X14890658Y-14184460D02*
X14881134Y-14174936D01*
X15081134Y-13993984D02*
X15081134Y-14032079D01*
X15157325Y-13993984D02*
X15157325Y-14032079D01*
X15452563Y-14270174D02*
X15443039Y-14260650D01*
X15443039Y-14260650D02*
X15423991Y-14232079D01*
X15423991Y-14232079D02*
X15414468Y-14213031D01*
X15414468Y-14213031D02*
X15404944Y-14184460D01*
X15404944Y-14184460D02*
X15395420Y-14136841D01*
X15395420Y-14136841D02*
X15395420Y-14098746D01*
X15395420Y-14098746D02*
X15404944Y-14051127D01*
X15404944Y-14051127D02*
X15414468Y-14022555D01*
X15414468Y-14022555D02*
X15423991Y-14003508D01*
X15423991Y-14003508D02*
X15443039Y-13974936D01*
X15443039Y-13974936D02*
X15452563Y-13965412D01*
X15509706Y-13993984D02*
X15633515Y-13993984D01*
X15633515Y-13993984D02*
X15566848Y-14070174D01*
X15566848Y-14070174D02*
X15595420Y-14070174D01*
X15595420Y-14070174D02*
X15614468Y-14079698D01*
X15614468Y-14079698D02*
X15623991Y-14089222D01*
X15623991Y-14089222D02*
X15633515Y-14108269D01*
X15633515Y-14108269D02*
X15633515Y-14155888D01*
X15633515Y-14155888D02*
X15623991Y-14174936D01*
X15623991Y-14174936D02*
X15614468Y-14184460D01*
X15614468Y-14184460D02*
X15595420Y-14193984D01*
X15595420Y-14193984D02*
X15538277Y-14193984D01*
X15538277Y-14193984D02*
X15519229Y-14184460D01*
X15519229Y-14184460D02*
X15509706Y-14174936D01*
X15871610Y-14193984D02*
X15871610Y-13993984D01*
X15957325Y-14193984D02*
X15957325Y-14089222D01*
X15957325Y-14089222D02*
X15947801Y-14070174D01*
X15947801Y-14070174D02*
X15928753Y-14060650D01*
X15928753Y-14060650D02*
X15900182Y-14060650D01*
X15900182Y-14060650D02*
X15881134Y-14070174D01*
X15881134Y-14070174D02*
X15871610Y-14079698D01*
X16081134Y-14193984D02*
X16062087Y-14184460D01*
X16062087Y-14184460D02*
X16052563Y-14174936D01*
X16052563Y-14174936D02*
X16043039Y-14155888D01*
X16043039Y-14155888D02*
X16043039Y-14098746D01*
X16043039Y-14098746D02*
X16052563Y-14079698D01*
X16052563Y-14079698D02*
X16062087Y-14070174D01*
X16062087Y-14070174D02*
X16081134Y-14060650D01*
X16081134Y-14060650D02*
X16109706Y-14060650D01*
X16109706Y-14060650D02*
X16128753Y-14070174D01*
X16128753Y-14070174D02*
X16138277Y-14079698D01*
X16138277Y-14079698D02*
X16147801Y-14098746D01*
X16147801Y-14098746D02*
X16147801Y-14155888D01*
X16147801Y-14155888D02*
X16138277Y-14174936D01*
X16138277Y-14174936D02*
X16128753Y-14184460D01*
X16128753Y-14184460D02*
X16109706Y-14193984D01*
X16109706Y-14193984D02*
X16081134Y-14193984D01*
X16262087Y-14193984D02*
X16243039Y-14184460D01*
X16243039Y-14184460D02*
X16233515Y-14165412D01*
X16233515Y-14165412D02*
X16233515Y-13993984D01*
X16414468Y-14184460D02*
X16395420Y-14193984D01*
X16395420Y-14193984D02*
X16357325Y-14193984D01*
X16357325Y-14193984D02*
X16338277Y-14184460D01*
X16338277Y-14184460D02*
X16328753Y-14165412D01*
X16328753Y-14165412D02*
X16328753Y-14089222D01*
X16328753Y-14089222D02*
X16338277Y-14070174D01*
X16338277Y-14070174D02*
X16357325Y-14060650D01*
X16357325Y-14060650D02*
X16395420Y-14060650D01*
X16395420Y-14060650D02*
X16414468Y-14070174D01*
X16414468Y-14070174D02*
X16423991Y-14089222D01*
X16423991Y-14089222D02*
X16423991Y-14108269D01*
X16423991Y-14108269D02*
X16328753Y-14127317D01*
X16500182Y-14184460D02*
X16519230Y-14193984D01*
X16519230Y-14193984D02*
X16557325Y-14193984D01*
X16557325Y-14193984D02*
X16576372Y-14184460D01*
X16576372Y-14184460D02*
X16585896Y-14165412D01*
X16585896Y-14165412D02*
X16585896Y-14155888D01*
X16585896Y-14155888D02*
X16576372Y-14136841D01*
X16576372Y-14136841D02*
X16557325Y-14127317D01*
X16557325Y-14127317D02*
X16528753Y-14127317D01*
X16528753Y-14127317D02*
X16509706Y-14117793D01*
X16509706Y-14117793D02*
X16500182Y-14098746D01*
X16500182Y-14098746D02*
X16500182Y-14089222D01*
X16500182Y-14089222D02*
X16509706Y-14070174D01*
X16509706Y-14070174D02*
X16528753Y-14060650D01*
X16528753Y-14060650D02*
X16557325Y-14060650D01*
X16557325Y-14060650D02*
X16576372Y-14070174D01*
X16652563Y-14270174D02*
X16662087Y-14260650D01*
X16662087Y-14260650D02*
X16681134Y-14232079D01*
X16681134Y-14232079D02*
X16690658Y-14213031D01*
X16690658Y-14213031D02*
X16700182Y-14184460D01*
X16700182Y-14184460D02*
X16709706Y-14136841D01*
X16709706Y-14136841D02*
X16709706Y-14098746D01*
X16709706Y-14098746D02*
X16700182Y-14051127D01*
X16700182Y-14051127D02*
X16690658Y-14022555D01*
X16690658Y-14022555D02*
X16681134Y-14003508D01*
X16681134Y-14003508D02*
X16662087Y-13974936D01*
X16662087Y-13974936D02*
X16652563Y-13965412D01*
X17014468Y-14270174D02*
X17004944Y-14260650D01*
X17004944Y-14260650D02*
X16985896Y-14232079D01*
X16985896Y-14232079D02*
X16976373Y-14213031D01*
X16976373Y-14213031D02*
X16966849Y-14184460D01*
X16966849Y-14184460D02*
X16957325Y-14136841D01*
X16957325Y-14136841D02*
X16957325Y-14098746D01*
X16957325Y-14098746D02*
X16966849Y-14051127D01*
X16966849Y-14051127D02*
X16976373Y-14022555D01*
X16976373Y-14022555D02*
X16985896Y-14003508D01*
X16985896Y-14003508D02*
X17004944Y-13974936D01*
X17004944Y-13974936D02*
X17014468Y-13965412D01*
X17090658Y-14060650D02*
X17090658Y-14193984D01*
X17090658Y-14079698D02*
X17100182Y-14070174D01*
X17100182Y-14070174D02*
X17119230Y-14060650D01*
X17119230Y-14060650D02*
X17147801Y-14060650D01*
X17147801Y-14060650D02*
X17166849Y-14070174D01*
X17166849Y-14070174D02*
X17176373Y-14089222D01*
X17176373Y-14089222D02*
X17176373Y-14193984D01*
X17300182Y-14193984D02*
X17281134Y-14184460D01*
X17281134Y-14184460D02*
X17271611Y-14174936D01*
X17271611Y-14174936D02*
X17262087Y-14155888D01*
X17262087Y-14155888D02*
X17262087Y-14098746D01*
X17262087Y-14098746D02*
X17271611Y-14079698D01*
X17271611Y-14079698D02*
X17281134Y-14070174D01*
X17281134Y-14070174D02*
X17300182Y-14060650D01*
X17300182Y-14060650D02*
X17328754Y-14060650D01*
X17328754Y-14060650D02*
X17347801Y-14070174D01*
X17347801Y-14070174D02*
X17357325Y-14079698D01*
X17357325Y-14079698D02*
X17366849Y-14098746D01*
X17366849Y-14098746D02*
X17366849Y-14155888D01*
X17366849Y-14155888D02*
X17357325Y-14174936D01*
X17357325Y-14174936D02*
X17347801Y-14184460D01*
X17347801Y-14184460D02*
X17328754Y-14193984D01*
X17328754Y-14193984D02*
X17300182Y-14193984D01*
X17423992Y-14060650D02*
X17500182Y-14060650D01*
X17452563Y-13993984D02*
X17452563Y-14165412D01*
X17452563Y-14165412D02*
X17462087Y-14184460D01*
X17462087Y-14184460D02*
X17481134Y-14193984D01*
X17481134Y-14193984D02*
X17500182Y-14193984D01*
X17719230Y-14060650D02*
X17719230Y-14260650D01*
X17719230Y-14070174D02*
X17738277Y-14060650D01*
X17738277Y-14060650D02*
X17776373Y-14060650D01*
X17776373Y-14060650D02*
X17795420Y-14070174D01*
X17795420Y-14070174D02*
X17804944Y-14079698D01*
X17804944Y-14079698D02*
X17814468Y-14098746D01*
X17814468Y-14098746D02*
X17814468Y-14155888D01*
X17814468Y-14155888D02*
X17804944Y-14174936D01*
X17804944Y-14174936D02*
X17795420Y-14184460D01*
X17795420Y-14184460D02*
X17776373Y-14193984D01*
X17776373Y-14193984D02*
X17738277Y-14193984D01*
X17738277Y-14193984D02*
X17719230Y-14184460D01*
X17928754Y-14193984D02*
X17909706Y-14184460D01*
X17909706Y-14184460D02*
X17900182Y-14165412D01*
X17900182Y-14165412D02*
X17900182Y-13993984D01*
X18090658Y-14193984D02*
X18090658Y-14089222D01*
X18090658Y-14089222D02*
X18081135Y-14070174D01*
X18081135Y-14070174D02*
X18062087Y-14060650D01*
X18062087Y-14060650D02*
X18023992Y-14060650D01*
X18023992Y-14060650D02*
X18004944Y-14070174D01*
X18090658Y-14184460D02*
X18071611Y-14193984D01*
X18071611Y-14193984D02*
X18023992Y-14193984D01*
X18023992Y-14193984D02*
X18004944Y-14184460D01*
X18004944Y-14184460D02*
X17995420Y-14165412D01*
X17995420Y-14165412D02*
X17995420Y-14146365D01*
X17995420Y-14146365D02*
X18004944Y-14127317D01*
X18004944Y-14127317D02*
X18023992Y-14117793D01*
X18023992Y-14117793D02*
X18071611Y-14117793D01*
X18071611Y-14117793D02*
X18090658Y-14108269D01*
X18157325Y-14060650D02*
X18233515Y-14060650D01*
X18185896Y-13993984D02*
X18185896Y-14165412D01*
X18185896Y-14165412D02*
X18195420Y-14184460D01*
X18195420Y-14184460D02*
X18214468Y-14193984D01*
X18214468Y-14193984D02*
X18233515Y-14193984D01*
X18376373Y-14184460D02*
X18357325Y-14193984D01*
X18357325Y-14193984D02*
X18319230Y-14193984D01*
X18319230Y-14193984D02*
X18300182Y-14184460D01*
X18300182Y-14184460D02*
X18290658Y-14165412D01*
X18290658Y-14165412D02*
X18290658Y-14089222D01*
X18290658Y-14089222D02*
X18300182Y-14070174D01*
X18300182Y-14070174D02*
X18319230Y-14060650D01*
X18319230Y-14060650D02*
X18357325Y-14060650D01*
X18357325Y-14060650D02*
X18376373Y-14070174D01*
X18376373Y-14070174D02*
X18385896Y-14089222D01*
X18385896Y-14089222D02*
X18385896Y-14108269D01*
X18385896Y-14108269D02*
X18290658Y-14127317D01*
X18557325Y-14193984D02*
X18557325Y-13993984D01*
X18557325Y-14184460D02*
X18538277Y-14193984D01*
X18538277Y-14193984D02*
X18500182Y-14193984D01*
X18500182Y-14193984D02*
X18481135Y-14184460D01*
X18481135Y-14184460D02*
X18471611Y-14174936D01*
X18471611Y-14174936D02*
X18462087Y-14155888D01*
X18462087Y-14155888D02*
X18462087Y-14098746D01*
X18462087Y-14098746D02*
X18471611Y-14079698D01*
X18471611Y-14079698D02*
X18481135Y-14070174D01*
X18481135Y-14070174D02*
X18500182Y-14060650D01*
X18500182Y-14060650D02*
X18538277Y-14060650D01*
X18538277Y-14060650D02*
X18557325Y-14070174D01*
X18633516Y-14270174D02*
X18643039Y-14260650D01*
X18643039Y-14260650D02*
X18662087Y-14232079D01*
X18662087Y-14232079D02*
X18671611Y-14213031D01*
X18671611Y-14213031D02*
X18681135Y-14184460D01*
X18681135Y-14184460D02*
X18690658Y-14136841D01*
X18690658Y-14136841D02*
X18690658Y-14098746D01*
X18690658Y-14098746D02*
X18681135Y-14051127D01*
X18681135Y-14051127D02*
X18671611Y-14022555D01*
X18671611Y-14022555D02*
X18662087Y-14003508D01*
X18662087Y-14003508D02*
X18643039Y-13974936D01*
X18643039Y-13974936D02*
X18633516Y-13965412D01*
M02*
